<?xml version="1.0" standalone="no"?>
<!DOCTYPE svg PUBLIC "-//W3C//DTD SVG 20010904//EN"
 "http://www.w3.org/TR/2001/REC-SVG-20010904/DTD/svg10.dtd">
<svg version="1.0" xmlns="http://www.w3.org/2000/svg"
 width="1000.000000pt" height="1000.000000pt" viewBox="0 0 1000.000000 1000.000000"
 preserveAspectRatio="xMidYMid meet">
<metadata>
Created by potrace 1.14, written by Peter Selinger 2001-2017
</metadata>
<g transform="translate(0.000000,1000.000000) scale(0.100000,-0.100000)"
fill="#000000" stroke="none">
<path d="M0 5000 l0 -5000 5000 0 5000 0 -1 1203 c0 680 -4 1193 -9 1182 -8
-19 -9 -19 -9 3 -1 12 3 22 9 22 6 0 10 152 10 435 -1 320 -4 434 -12 429 -7
-5 -8 -3 -2 7 12 20 14 291 2 307 -7 8 -7 12 0 12 5 0 10 41 11 99 2 77 -1
102 -14 114 -19 20 -19 28 0 21 13 -5 14 367 15 3080 l0 3086 -65 0 c-60 0
-65 -2 -66 -22 -1 -22 -1 -22 -9 2 -8 24 -8 23 -9 -7 -1 -26 -4 -31 -18 -26
-11 4 -12 8 -5 11 17 5 15 29 -3 36 -23 8 -45 -4 -45 -25 0 -17 -3 -18 -20 -9
-11 6 -20 7 -21 3 -1 -4 -5 3 -9 17 l-8 25 -1 -25 c-1 -37 -38 -38 -44 -2 l-4
27 -2 -27 c-1 -23 -5 -27 -26 -26 -17 2 -25 8 -25 20 0 26 -18 22 -23 -4 -4
-20 -4 -19 -6 5 -1 22 -6 27 -26 27 -14 0 -24 -3 -24 -7 1 -5 1 -16 0 -25 -1
-22 -31 -24 -31 -3 0 8 5 15 10 15 6 0 10 4 10 8 0 5 -7 9 -15 9 -10 0 -15
-10 -15 -29 0 -26 -2 -28 -20 -18 -11 6 -20 20 -20 30 0 17 -7 20 -44 20 -34
0 -46 -4 -49 -17 -4 -17 -5 -17 -6 0 -2 29 -31 20 -32 -10 -2 -24 -2 -25 -6
-5 -2 12 -10 22 -16 23 -7 0 -20 2 -29 4 -12 2 -18 -3 -18 -16 0 -10 5 -19 10
-19 6 0 10 7 10 15 0 13 2 14 14 3 12 -11 11 -14 -3 -20 -31 -13 -41 -8 -42
20 l-1 27 -8 -30 -8 -30 -1 28 c-1 17 -5 26 -11 22 -6 -4 -9 -16 -6 -28 3 -13
0 -10 -6 6 -11 25 -17 27 -53 25 -24 -2 -43 -9 -47 -18 -5 -12 -7 -12 -7 2 -1
28 -81 19 -92 -10 -5 -12 -15 -22 -24 -22 -18 0 -20 27 -3 32 7 3 6 7 -5 11
-14 5 -17 0 -17 -24 0 -17 -4 -28 -9 -25 -4 3 -6 17 -3 31 4 21 1 25 -21 25
-19 0 -27 -6 -30 -22 -4 -21 -4 -21 -6 -2 -1 18 -7 21 -58 21 -32 0 -52 -2
-45 -4 17 -6 15 -30 -3 -37 -11 -4 -15 2 -16 22 l-1 27 -7 -25 c-7 -25 -7 -25
-13 -2 -7 24 -52 32 -61 10 -4 -10 -6 -10 -6 0 -1 9 -876 12 -4341 12 l-4340
0 0 -5000z m6214 4974 c3 -8 2 -12 -4 -9 -6 3 -10 10 -10 16 0 14 7 11 14 -7z
m2494 -4 c-7 -10 -14 -18 -15 -16 -6 6 9 36 18 36 5 0 4 -9 -3 -20z m219 -2
c-3 -8 -6 -5 -6 6 -1 11 2 17 5 13 3 -3 4 -12 1 -19z m177 -10 c7 -5 5 -8 -6
-8 -21 0 -32 16 -22 32 6 9 9 8 12 -2 3 -8 10 -18 16 -22z m66 16 c0 -9 5 -12
13 -8 6 4 9 3 4 -1 -10 -11 -48 -14 -41 -3 3 4 1 8 -5 8 -5 0 -12 -6 -14 -12
-4 -8 -6 -7 -6 4 -1 14 11 22 42 27 4 0 7 -6 7 -15z m243 9 c-7 -2 -19 -2 -25
0 -7 3 -2 5 12 5 14 0 19 -2 13 -5z m407 -2 c0 -6 -4 -13 -10 -16 -5 -3 -10 1
-10 9 0 9 5 16 10 16 6 0 10 -4 10 -9z m-2773 -33 c-3 -7 -5 -2 -5 12 0 14 2
19 5 13 2 -7 2 -19 0 -25z m30 0 c-3 -8 -6 -5 -6 6 -1 11 2 17 5 13 3 -3 4
-12 1 -19z m2336 15 c-7 -2 -19 -2 -25 0 -7 3 -2 5 12 5 14 0 19 -2 13 -5z
m-715 -90 c0 -28 -2 -33 -8 -18 -6 17 -3 55 5 55 2 0 3 -17 3 -37z m-2531 -25
c-3 -8 -6 -5 -6 6 -1 11 2 17 5 13 3 -3 4 -12 1 -19z m-6050 -30 c-3 -8 -6 -5
-6 6 -1 11 2 17 5 13 3 -3 4 -12 1 -19z m8996 -59 c-8 -29 -13 -23 -13 14 0
22 3 28 9 18 5 -7 6 -22 4 -32z m74 -16 c-3 -10 -5 -2 -5 17 0 19 2 27 5 18 2
-10 2 -26 0 -35z m300 25 c-3 -8 -6 -5 -6 6 -1 11 2 17 5 13 3 -3 4 -12 1 -19z
m143 -25 c-11 -17 -11 -17 -6 0 3 10 7 26 7 35 1 15 2 15 6 0 2 -10 -1 -25 -7
-35z m-635 -11 c-3 -3 -5 1 -5 9 0 12 -2 12 -10 -1 -5 -8 -13 -11 -17 -6 -4 5
-2 11 5 13 6 3 12 12 13 21 0 11 3 9 10 -7 5 -13 7 -26 4 -29z m142 11 c-3
-10 -5 -4 -5 12 0 17 2 24 5 18 2 -7 2 -21 0 -30z m98 -5 c-7 -18 -32 -19 -32
-2 0 7 5 12 11 11 6 -1 10 7 8 18 -2 18 -1 18 8 3 5 -9 8 -23 5 -30z m65 19
c0 -14 -6 -24 -15 -24 -8 0 -15 5 -15 11 0 6 -5 4 -10 -4 -7 -11 -10 -11 -10
-2 0 17 22 41 38 42 6 0 12 -10 12 -23z m17 -14 c-3 -10 -5 -4 -5 12 0 17 2
24 5 18 2 -7 2 -21 0 -30z m75 5 c9 9 9 12 0 12 -7 0 -12 4 -12 8 0 5 7 9 15
9 8 0 12 -4 9 -9 -3 -4 -1 -8 5 -8 5 0 12 6 14 13 3 6 6 0 6 -14 1 -24 -3 -27
-34 -27 -20 0 -35 5 -35 12 0 6 -5 4 -10 -4 -7 -12 -10 -8 -10 14 l0 29 20
-23 c16 -18 23 -21 32 -12z m71 25 c-7 -2 -13 -11 -13 -19 0 -10 7 -13 25 -8
14 3 25 2 25 -3 0 -5 -12 -9 -27 -8 -21 0 -29 6 -31 23 -3 16 1 22 15 21 10 0
13 -3 6 -6z m146 -21 c-2 -23 -2 -24 -6 -4 -5 26 -23 30 -23 4 0 -11 -8 -18
-22 -19 -13 0 -17 1 -10 4 12 5 17 33 6 33 -4 0 -13 -8 -20 -17 -12 -16 -13
-16 -14 -1 0 19 12 24 58 26 29 1 32 -1 31 -26z m-3395 2 c3 -8 2 -12 -4 -9
-6 3 -10 10 -10 16 0 14 7 11 14 -7z m2736 -11 c0 -10 -4 -14 -8 -8 -4 6 -11
13 -16 18 -5 4 -2 7 7 7 10 0 17 -8 17 -17z m129 -2 c10 -7 7 -9 -12 -8 -15 1
-27 5 -27 10 0 10 22 9 39 -2z m-5222 -128 c-3 -10 -5 -2 -5 17 0 19 2 27 5
18 2 -10 2 -26 0 -35z m50 10 c-3 -10 -5 -4 -5 12 0 17 2 24 5 18 2 -7 2 -21
0 -30z m290 -10 c-3 -10 -5 -2 -5 17 0 19 2 27 5 18 2 -10 2 -26 0 -35z m-30
0 c-3 -10 -5 -4 -5 12 0 17 2 24 5 18 2 -7 2 -21 0 -30z m-210 -5 c-3 -7 -5
-2 -5 12 0 14 2 19 5 13 2 -7 2 -19 0 -25z m5356 -62 c3 6 22 11 42 12 31 1
35 -2 35 -23 0 -22 -4 -24 -37 -20 -21 1 -44 3 -50 4 -8 1 -13 14 -12 34 1 29
2 30 8 7 4 -14 10 -20 14 -14z m117 -1 c0 -24 -5 -35 -15 -35 -10 0 -15 9 -14
28 l1 27 8 -25 c8 -24 8 -23 9 8 1 43 11 41 11 -3z m17 -17 c-2 -13 -4 -5 -4
17 -1 22 1 32 4 23 2 -10 2 -28 0 -40z m140 0 c-2 -13 -4 -5 -4 17 -1 22 1 32
4 23 2 -10 2 -28 0 -40z m-527 20 c0 -13 28 -9 32 4 5 14 38 4 38 -12 0 -5 -8
-10 -17 -10 -14 0 -15 -2 -4 -9 12 -8 0 -8 -65 -2 -7 1 -14 10 -17 20 -3 15 0
19 14 18 11 -1 19 -5 19 -9z m140 -4 c0 -8 -4 -12 -10 -9 -5 3 -10 10 -10 16
0 5 5 9 10 9 6 0 10 -7 10 -16z m36 -31 c-10 -10 -37 7 -30 18 4 8 9 7 15 -2
6 -10 9 -7 10 11 2 25 2 25 6 2 3 -13 2 -26 -1 -29z m274 41 c0 -8 -19 -13
-24 -6 -3 5 1 9 9 9 8 0 15 -2 15 -3z m40 -6 c0 -9 4 -8 10 2 8 13 10 12 10
-2 0 -10 -6 -18 -12 -18 -9 0 -8 -4 2 -10 13 -8 13 -10 -2 -10 -9 0 -22 8 -27
18 -10 16 -10 15 -11 -3 -1 -11 -4 -14 -7 -7 -5 14 14 42 28 42 5 0 9 -6 9
-12z m-365 -28 c17 3 16 -17 0 -24 -9 -3 -13 -2 -10 3 3 5 1 12 -5 16 -5 3
-10 14 -9 23 0 15 1 15 8 -1 4 -10 11 -18 16 -17z m-2328 -12 c-3 -7 -5 -2 -5
12 0 14 2 19 5 13 2 -7 2 -19 0 -25z m2309 -57 c18 -34 34 -48 34 -29 0 9 -3
18 -7 21 -5 2 -3 2 4 1 6 -2 14 5 16 14 3 10 5 6 6 -10 0 -15 9 -32 19 -37 14
-9 10 -10 -18 -9 -19 1 -38 7 -42 13 -6 7 -11 6 -17 -3 -15 -24 -46 -10 -49
22 -6 48 33 60 54 17z m213 -18 c-1 -24 -3 -29 -6 -15 -2 12 -9 22 -15 22 -6
0 -8 -9 -5 -21 4 -16 3 -18 -9 -8 -10 8 -14 8 -14 0 0 -6 -5 -11 -11 -11 -5 0
-7 5 -3 11 5 8 1 8 -14 0 -32 -17 -42 -13 -41 17 l1 27 7 -25 c5 -17 9 -21 15
-12 4 6 4 17 1 22 -3 6 5 10 19 10 13 0 26 -5 28 -11 2 -5 12 -1 23 10 11 11
21 20 23 20 1 1 1 -16 1 -36z m34 -25 c8 -5 6 -8 -5 -8 -14 0 -18 8 -17 38 2
34 2 34 6 7 3 -16 10 -33 16 -37z m144 10 c-2 -13 -4 -5 -4 17 -1 22 1 32 4
23 2 -10 2 -28 0 -40z m80 5 c-3 -10 -5 -4 -5 12 0 17 2 24 5 18 2 -7 2 -21 0
-30z m-157 14 c0 -5 -9 -11 -21 -14 -16 -4 -17 -8 -7 -14 10 -7 9 -9 -4 -9
-13 0 -18 8 -18 25 0 20 4 24 25 23 14 -1 25 -6 25 -11z m10 -24 c-11 -17 -11
-17 -6 0 3 10 6 24 7 30 0 9 2 9 5 0 3 -7 0 -20 -6 -30z m47 15 c-3 -8 -6 -5
-6 6 -1 11 2 17 5 13 3 -3 4 -12 1 -19z m-3 -21 c7 -6 6 -7 -4 -4 -8 2 -16 12
-17 23 -2 13 -1 15 4 4 3 -8 11 -19 17 -23z m76 18 c0 -8 -2 -15 -4 -15 -2 0
-6 7 -10 15 -3 8 -1 15 4 15 6 0 10 -7 10 -15z m-2993 -17 c-3 -8 -6 -5 -6 6
-1 11 2 17 5 13 3 -3 4 -12 1 -19z m-2060 -20 c-3 -7 -5 -2 -5 12 0 14 2 19 5
13 2 -7 2 -19 0 -25z m4649 -72 c1 -17 -5 -21 -32 -23 -40 -3 -43 9 -12 40 25
25 42 19 44 -17z m-929 2 c-3 -8 -6 -5 -6 6 -1 11 2 17 5 13 3 -3 4 -12 1 -19z
m-3620 -35 c-3 -10 -5 -2 -5 17 0 19 2 27 5 18 2 -10 2 -26 0 -35z m-360 -5
c-3 -7 -5 -2 -5 12 0 14 2 19 5 13 2 -7 2 -19 0 -25z m30 0 c-3 -7 -5 -2 -5
12 0 14 2 19 5 13 2 -7 2 -19 0 -25z m200 0 c-3 -7 -5 -2 -5 12 0 14 2 19 5
13 2 -7 2 -19 0 -25z m20 0 c-3 -7 -5 -2 -5 12 0 14 2 19 5 13 2 -7 2 -19 0
-25z m36 12 c-3 -11 -7 -20 -9 -20 -2 0 -4 9 -4 20 0 11 4 20 9 20 5 0 7 -9 4
-20z m-486 -12 c-3 -8 -6 -5 -6 6 -1 11 2 17 5 13 3 -3 4 -12 1 -19z m310 0
c-3 -8 -6 -5 -6 6 -1 11 2 17 5 13 3 -3 4 -12 1 -19z m90 0 c-3 -8 -6 -5 -6 6
-1 11 2 17 5 13 3 -3 4 -12 1 -19z m4110 -95 c-3 -10 -5 -2 -5 17 0 19 2 27 5
18 2 -10 2 -26 0 -35z m593 32 c0 -9 6 -12 16 -8 13 5 13 7 2 14 -10 7 -9 9 5
9 12 0 17 -8 17 -26 0 -21 -4 -25 -20 -21 -11 3 -20 2 -20 -3 0 -4 -8 -11 -17
-14 -10 -4 -14 -4 -10 0 4 4 2 13 -4 20 -6 8 -9 21 -5 29 7 19 36 20 36 0z
m114 7 c-6 -4 -14 -14 -17 -22 -4 -10 -6 -8 -6 8 -1 15 5 22 17 22 10 0 13 -3
6 -8z m57 -14 c-5 -13 -13 -23 -20 -22 -47 4 -45 3 -26 24 10 11 26 20 36 20
15 0 17 -4 10 -22z m44 1 c4 -11 4 -23 1 -26 -3 -4 -6 2 -6 12 0 18 -1 18 -15
-1 -15 -19 -20 -8 -9 20 8 22 21 20 29 -5z m28 1 c-3 -11 -1 -20 5 -20 6 0 13
10 15 23 3 16 5 13 6 -11 1 -30 -1 -32 -19 -22 -20 11 -26 31 -13 43 10 11 11
8 6 -13z m117 9 c0 -6 -6 -9 -14 -6 -8 3 -16 -2 -19 -14 -6 -24 -26 -25 -22
-1 2 9 4 20 4 25 1 12 51 8 51 -4z m29 -14 c1 6 10 11 22 11 18 0 19 -2 4 -12
-12 -9 -13 -13 -3 -17 7 -2 1 -4 -14 -3 -23 1 -28 6 -27 26 0 23 1 23 9 5 5
-11 9 -15 9 -10z m-3422 -27 c-3 -7 -5 -2 -5 12 0 14 2 19 5 13 2 -7 2 -19 0
-25z m3320 10 c-3 -8 -6 -5 -6 6 -1 11 2 17 5 13 3 -3 4 -12 1 -19z m-97 -53
c-7 -8 -10 -26 -8 -40 6 -30 2 -32 -12 -4 -9 16 -8 25 6 40 20 22 32 26 14 4z
m-149 -17 l18 -23 1 25 c1 15 4 19 7 10 3 -8 12 -21 21 -27 13 -11 13 -13 1
-13 -12 0 -12 -2 0 -9 10 -7 7 -9 -12 -8 -17 1 -30 11 -38 27 l-12 25 -6 -25
c-7 -29 -26 -36 -47 -16 -20 20 -18 31 7 33 16 2 18 -1 9 -12 -7 -8 -7 -15 -1
-19 5 -3 12 7 16 24 8 36 11 37 36 8z m376 -25 c-3 -10 -5 -2 -5 17 0 19 2 27
5 18 2 -10 2 -26 0 -35z m30 -10 c-3 -10 -5 -2 -5 17 0 19 2 27 5 18 2 -10 2
-26 0 -35z m-324 15 c8 -28 1 -36 -8 -9 -3 11 -14 22 -23 24 -13 4 -12 5 4 6
14 1 24 -6 27 -21z m27 13 c0 -5 3 -18 6 -28 5 -16 4 -16 -10 1 -18 23 -20 36
-6 36 6 0 10 -4 10 -9z m121 0 c6 10 9 5 9 -16 0 -23 -3 -27 -10 -15 -6 9 -10
10 -10 3 0 -7 -12 -11 -28 -10 -19 1 -28 8 -28 19 0 12 4 14 12 7 8 -7 16 -5
26 5 7 8 15 10 17 4 2 -6 7 -4 12 3z m39 -16 c0 -14 -2 -25 -4 -25 -2 0 -6 11
-8 25 -3 14 -1 25 3 25 5 0 9 -11 9 -25z m53 -7 c-12 -4 -13 -7 -4 -7 8 -1 11
-4 8 -7 -4 -4 -13 -2 -20 4 -8 7 -17 9 -20 5 -4 -3 -7 3 -7 14 0 19 3 20 30
10 26 -10 28 -13 13 -19z m-361 -82 c7 5 8 2 3 -6 -5 -8 -2 -17 7 -24 12 -9 6
-11 -28 -13 -46 -2 -63 20 -24 30 11 3 21 13 21 24 1 16 2 17 6 0 2 -9 9 -14
15 -11z m111 -120 c3 6 22 11 42 12 31 1 35 -1 35 -23 0 -31 -23 -33 -44 -4
-14 20 -16 20 -31 5 -23 -22 -25 -21 -24 17 1 29 2 30 8 7 4 -14 10 -20 14
-14z m137 -12 c0 -14 -28 -26 -41 -18 -5 3 -9 15 -8 27 1 20 2 20 9 -3 7 -23
8 -22 9 9 1 33 2 34 16 15 8 -10 15 -24 15 -30z m-271 4 c1 15 7 22 22 22 19
0 19 -1 5 -16 -9 -8 -13 -20 -10 -26 4 -6 -2 -8 -12 -6 -12 2 -20 13 -21 28
l-2 25 8 -25 c9 -24 9 -24 10 -2z m57 -25 c-3 -3 -13 -3 -22 1 -16 6 -15 8 2
25 18 17 19 17 22 -1 2 -11 1 -22 -2 -25z m259 37 c-16 -7 -17 -9 -3 -9 9 -1
20 4 23 9 11 18 26 10 23 -12 -2 -16 -11 -24 -28 -26 -20 -2 -22 -1 -10 7 8 6
11 11 6 11 -6 0 -20 -10 -34 -22 l-23 -23 10 28 c6 16 9 33 5 38 -3 5 7 9 23
8 25 0 26 -1 8 -9z m68 -10 c-3 -11 -7 -20 -9 -20 -2 0 -4 9 -4 20 0 11 4 20
9 20 5 0 7 -9 4 -20z m24 -17 c-3 -10 -5 -4 -5 12 0 17 2 24 5 18 2 -7 2 -21
0 -30z m36 30 c-7 -2 -13 -11 -13 -18 0 -7 6 -16 13 -18 7 -3 5 -6 -5 -6 -13
-1 -18 7 -18 24 0 17 5 25 18 24 10 0 12 -3 5 -6z m-5766 -50 c-3 -10 -5 -2
-5 17 0 19 2 27 5 18 2 -10 2 -26 0 -35z m540 0 c-3 -10 -5 -2 -5 17 0 19 2
27 5 18 2 -10 2 -26 0 -35z m50 0 c-3 -10 -5 -4 -5 12 0 17 2 24 5 18 2 -7 2
-21 0 -30z m-20 -5 c-3 -7 -5 -2 -5 12 0 14 2 19 5 13 2 -7 2 -19 0 -25z m70
10 c-3 -8 -6 -5 -6 6 -1 11 2 17 5 13 3 -3 4 -12 1 -19z m-526 -11 c-10 -9
-11 -8 -5 6 3 10 9 15 12 12 3 -3 0 -11 -7 -18z m253 8 c-4 -8 -8 -15 -10 -15
-2 0 -4 7 -4 15 0 8 4 15 10 15 5 0 7 -7 4 -15z m103 -7 c-3 -8 -6 -5 -6 6 -1
11 2 17 5 13 3 -3 4 -12 1 -19z m250 0 c-3 -8 -6 -5 -6 6 -1 11 2 17 5 13 3
-3 4 -12 1 -19z m4581 -39 c3 -12 2 -12 -7 1 -5 8 -13 11 -17 7 -15 -15 -13
-42 4 -55 16 -13 16 -14 -3 -10 -14 2 -21 12 -23 32 -5 40 36 63 46 25z m270
-4 c-3 -3 -9 2 -12 12 -6 14 -5 15 5 6 7 -7 10 -15 7 -18z m-192 -42 c12 -9 8
-11 -21 -10 -25 1 -31 3 -20 9 8 5 16 21 16 36 2 27 2 27 6 2 2 -14 11 -30 19
-37z m143 20 c-1 -24 -3 -29 -6 -15 -2 12 -9 22 -14 22 -6 0 -7 -9 -3 -22 6
-20 5 -21 -10 -9 -10 9 -16 10 -16 2 0 -6 -5 -11 -11 -11 -5 0 -7 4 -4 10 3 5
0 7 -8 4 -9 -3 -16 3 -20 15 -3 14 0 21 10 21 8 0 11 -4 8 -10 -3 -5 -1 -10 4
-10 6 0 11 6 11 13 0 9 2 9 8 -1 6 -9 13 -8 28 7 25 26 24 27 23 -16z m33 -23
c5 0 8 7 4 15 -3 8 -1 15 4 15 6 0 10 -9 10 -21 0 -36 -35 -19 -37 19 -3 32
-3 32 3 2 3 -16 10 -30 16 -30z m219 33 c-8 -15 -10 -15 -11 -2 0 17 10 32 18
25 2 -3 -1 -13 -7 -23z m-359 -18 c3 -14 1 -25 -3 -25 -5 0 -9 11 -9 25 0 14
2 25 4 25 2 0 6 -11 8 -25z m219 3 c-9 -25 -42 -31 -48 -10 -3 6 2 12 11 12 9
0 16 5 16 10 0 6 7 10 15 10 11 0 12 -6 6 -22z m26 -10 c-3 -7 -5 -2 -5 12 0
14 2 19 5 13 2 -7 2 -19 0 -25z m47 20 c-3 -4 -1 -8 5 -8 5 0 12 6 14 13 3 6
6 2 6 -10 1 -12 -3 -24 -8 -27 -14 -9 -42 5 -35 16 4 6 0 14 -7 19 -10 6 -8 8
8 6 12 0 19 -5 17 -9z m-5457 -45 c-3 -10 -5 -2 -5 17 0 19 2 27 5 18 2 -10 2
-26 0 -35z m243 11 c0 -14 -4 -23 -9 -20 -5 3 -7 15 -4 26 7 28 13 25 13 -6z
m4713 11 c-3 -9 -8 -14 -10 -11 -3 3 -2 9 2 15 9 16 15 13 8 -4z m-4636 -27
c-3 -7 -5 -2 -5 12 0 14 2 19 5 13 2 -7 2 -19 0 -25z m90 -5 c-3 -10 -5 -4 -5
12 0 17 2 24 5 18 2 -7 2 -21 0 -30z m191 17 c-7 -10 -14 -17 -17 -15 -4 4 18
35 25 35 2 0 -1 -9 -8 -20z m-28 -4 c0 -3 -4 -8 -10 -11 -5 -3 -10 -1 -10 4 0
6 5 11 10 11 6 0 10 -2 10 -4z m4386 -78 c0 -10 -1 -18 -3 -18 -1 0 -7 8 -12
18 -7 13 -6 19 2 19 7 0 13 -9 13 -19z m34 12 c0 -5 0 -13 -1 -17 0 -4 8 -11
18 -15 17 -7 17 -8 -1 -5 -19 2 -44 47 -26 47 6 0 10 -4 10 -10z m27 -12 c-3
-8 -6 -5 -6 6 -1 11 2 17 5 13 3 -3 4 -12 1 -19z m75 -6 c4 -12 -2 -17 -18
-17 -12 0 -20 3 -17 8 2 4 0 7 -6 7 -5 0 -12 -6 -14 -12 -3 -8 -6 -6 -6 5 -1
9 6 17 15 17 8 0 13 4 10 9 -4 5 3 7 13 4 11 -3 21 -12 23 -21z m-157 -20 c-7
-8 -35 7 -35 18 0 6 7 6 20 -2 10 -7 17 -14 15 -16z m-62 -83 c-5 -20 -4 -20
18 -9 13 7 27 18 31 24 4 6 8 0 8 -14 0 -23 -4 -26 -35 -26 -30 0 -35 3 -35
23 0 13 4 23 9 23 5 0 7 -10 4 -21z m112 8 c11 15 16 16 27 5 11 -11 10 -12
-6 -6 -13 5 -17 4 -12 -4 4 -7 4 -13 -1 -13 -41 -7 -49 -5 -50 13 -2 16 0 17
14 3 14 -14 16 -14 28 2z m105 -12 c0 -14 -4 -25 -9 -25 -5 0 -8 11 -8 25 0
14 3 25 8 25 5 0 9 -11 9 -25z m37 -12 c-3 -10 -5 -4 -5 12 0 17 2 24 5 18 2
-7 2 -21 0 -30z m135 12 c-2 -14 -8 -25 -12 -25 -4 0 -5 11 -2 25 2 14 8 25
12 25 4 0 5 -11 2 -25z m60 18 c-6 -2 -10 -9 -6 -14 3 -5 0 -9 -5 -9 -12 0
-14 13 -4 23 3 4 11 7 17 6 6 0 5 -3 -2 -6z m110 -20 c-2 -12 -8 -23 -13 -23
-5 0 -8 11 -7 23 1 13 7 24 13 24 7 0 10 -10 7 -24z m36 -4 c-3 -8 -7 -3 -11
10 -4 17 -3 21 5 13 5 -5 8 -16 6 -23z m67 20 c3 -4 1 -10 -6 -15 -8 -4 -10
-3 -5 4 4 7 2 12 -3 12 -6 0 -11 -7 -11 -15 0 -21 -17 -19 -22 3 -4 13 1 18
18 17 12 0 25 -3 29 -6z m-478 -21 c-3 -8 -6 -5 -6 6 -1 11 2 17 5 13 3 -3 4
-12 1 -19z m320 -20 c-3 -8 -6 -5 -6 6 -1 11 2 17 5 13 3 -3 4 -12 1 -19z
m170 -90 c-2 -13 -4 -5 -4 17 -1 22 1 32 4 23 2 -10 2 -28 0 -40z m-432 32 c3
-5 1 -10 -4 -10 -6 0 -11 5 -11 10 0 6 2 10 4 10 3 0 8 -4 11 -10z m402 -12
c-3 -8 -6 -5 -6 6 -1 11 2 17 5 13 3 -3 4 -12 1 -19z m-306 -13 c5 4 9 1 9 -5
0 -7 -7 -10 -15 -6 -8 3 -15 1 -15 -4 0 -6 -7 -10 -15 -10 -8 0 -15 7 -15 15
0 8 7 15 15 15 8 0 16 6 16 13 1 6 3 4 6 -6 2 -9 9 -15 14 -12z m50 2 c-10 -9
-11 -8 -5 6 3 10 9 15 12 12 3 -3 0 -11 -7 -18z m122 3 c-5 -19 -31 -35 -41
-25 -3 3 1 5 9 6 8 0 6 4 -6 9 -18 8 -18 9 -2 9 10 1 16 5 13 9 -2 4 4 8 14 9
13 1 16 -4 13 -17z m24 -12 c-3 -7 -5 -2 -5 12 0 14 2 19 5 13 2 -7 2 -19 0
-25z m73 22 c0 -5 -2 -10 -4 -10 -3 0 -8 5 -11 10 -3 6 -1 10 4 10 6 0 11 -4
11 -10z m-4613 -22 c-3 -8 -6 -5 -6 6 -1 11 2 17 5 13 3 -3 4 -12 1 -19z
m4279 -7 c-4 -6 -13 -11 -19 -11 -8 0 -7 3 2 9 8 5 10 14 6 22 -6 11 -5 11 5
2 7 -6 9 -16 6 -22z m174 15 c0 -8 -4 -17 -8 -20 -4 -2 -8 4 -8 15 0 10 4 19
8 19 4 0 8 -6 8 -14z m134 -8 c-5 -8 -1 -9 12 -4 14 5 16 4 7 -5 -14 -14 -33
-4 -33 17 0 8 5 12 10 9 6 -4 7 -11 4 -17z m-5607 -25 c-3 -10 -5 -4 -5 12 0
17 2 24 5 18 2 -7 2 -21 0 -30z m50 -5 c-3 -7 -5 -2 -5 12 0 14 2 19 5 13 2
-7 2 -19 0 -25z m107 16 c3 -8 2 -12 -4 -9 -6 3 -10 10 -10 16 0 14 7 11 14
-7z m183 -6 c-3 -8 -6 -5 -6 6 -1 11 2 17 5 13 3 -3 4 -12 1 -19z m1020 0 c-3
-8 -6 -5 -6 6 -1 11 2 17 5 13 3 -3 4 -12 1 -19z m110 -10 c-3 -7 -5 -2 -5 12
0 14 2 19 5 13 2 -7 2 -19 0 -25z m110 0 c-3 -7 -5 -2 -5 12 0 14 2 19 5 13 2
-7 2 -19 0 -25z m420 0 c-3 -7 -5 -2 -5 12 0 14 2 19 5 13 2 -7 2 -19 0 -25z
m3103 22 c0 -5 -5 -10 -11 -10 -5 0 -7 5 -4 10 3 6 8 10 11 10 2 0 4 -4 4 -10z
m135 0 c3 -5 2 -10 -4 -10 -5 0 -13 5 -16 10 -3 6 -2 10 4 10 5 0 13 -4 16
-10z m-5208 -22 c-3 -8 -6 -5 -6 6 -1 11 2 17 5 13 3 -3 4 -12 1 -19z m340 0
c-3 -8 -6 -5 -6 6 -1 11 2 17 5 13 3 -3 4 -12 1 -19z m200 0 c-3 -8 -6 -5 -6
6 -1 11 2 17 5 13 3 -3 4 -12 1 -19z m1863 -58 c0 -5 -9 -14 -20 -20 -15 -8
-19 -17 -15 -31 4 -10 2 -19 -3 -19 -5 0 -12 9 -15 20 -5 20 -27 28 -27 10 0
-5 -7 -10 -16 -10 -25 0 -5 21 40 41 47 21 56 23 56 9z m2707 -12 c-3 -8 -6
-5 -6 6 -1 11 2 17 5 13 3 -3 4 -12 1 -19z m-3760 -10 c-3 -8 -6 -5 -6 6 -1
11 2 17 5 13 3 -3 4 -12 1 -19z m-240 -10 c-3 -8 -6 -5 -6 6 -1 11 2 17 5 13
3 -3 4 -12 1 -19z m4097 -19 c-9 -10 -20 -17 -23 -14 -3 4 1 10 9 15 17 11
-34 7 -72 -6 -20 -6 -21 -5 -10 8 7 8 22 15 35 14 12 -1 33 4 47 11 31 16 39
0 14 -28z m-5184 21 c0 -5 -5 -10 -11 -10 -5 0 -7 5 -4 10 3 6 8 10 11 10 2 0
4 -4 4 -10z m67 -12 c-3 -8 -6 -5 -6 6 -1 11 2 17 5 13 3 -3 4 -12 1 -19z
m340 -10 c-3 -7 -5 -2 -5 12 0 14 2 19 5 13 2 -7 2 -19 0 -25z m535 0 c-9 -9
-12 -7 -12 12 0 19 3 21 12 12 9 -9 9 -15 0 -24z m125 0 c-3 -7 -5 -2 -5 12 0
14 2 19 5 13 2 -7 2 -19 0 -25z m50 10 c-3 -8 -6 -5 -6 6 -1 11 2 17 5 13 3
-3 4 -12 1 -19z m180 -10 c-3 -7 -5 -2 -5 12 0 14 2 19 5 13 2 -7 2 -19 0 -25z
m140 10 c-3 -8 -6 -5 -6 6 -1 11 2 17 5 13 3 -3 4 -12 1 -19z m117 -18 c-6 -5
-24 21 -24 34 0 6 6 1 14 -10 8 -10 12 -21 10 -24z m63 8 c-3 -7 -5 -2 -5 12
0 14 2 19 5 13 2 -7 2 -19 0 -25z m40 0 c-3 -7 -5 -2 -5 12 0 14 2 19 5 13 2
-7 2 -19 0 -25z m3353 23 c0 -5 -11 -16 -25 -25 -25 -17 -55 -21 -55 -8 0 12
40 33 50 27 6 -4 10 -1 10 4 0 6 5 11 10 11 6 0 10 -4 10 -9z m-4230 -10 c0
-6 -4 -13 -10 -16 -5 -3 -10 1 -10 9 0 9 5 16 10 16 6 0 10 -4 10 -9z m2230
-11 c0 -5 6 -7 13 -5 15 6 89 -35 95 -52 2 -9 -10 -13 -45 -12 -61 1 -102 12
-85 23 17 10 15 26 -3 26 -8 0 -15 7 -15 15 0 8 9 15 20 15 11 0 20 -4 20 -10z
m-3010 -10 c0 -5 -2 -10 -4 -10 -3 0 -8 5 -11 10 -3 6 -1 10 4 10 6 0 11 -4
11 -10z m5337 -67 c-3 -10 -5 -2 -5 17 0 19 2 27 5 18 2 -10 2 -26 0 -35z
m120 -5 c-2 -13 -4 -5 -4 17 -1 22 1 32 4 23 2 -10 2 -28 0 -40z m-74 2 c-7
-27 -13 -25 -11 4 1 14 5 23 9 20 4 -2 5 -13 2 -24z m44 -2 c-3 -7 -5 -2 -5
12 0 14 2 19 5 13 2 -7 2 -19 0 -25z m55 7 c3 -14 1 -25 -3 -25 -5 0 -9 11 -9
25 0 14 2 25 4 25 2 0 6 -11 8 -25z m68 21 c0 -7 -50 -13 -55 -7 -2 4 10 8 26
9 16 1 29 1 29 -2z m31 -5 c6 10 9 8 9 -9 0 -14 4 -21 11 -17 6 4 8 14 4 24
-5 13 -4 14 6 3 11 -10 10 -16 -5 -30 -14 -12 -20 -14 -23 -4 -3 6 -8 10 -12
8 -4 -3 -7 5 -8 17 0 12 1 16 4 8 5 -11 7 -11 14 0z m-8474 -58 c-3 -10 -5 -2
-5 17 0 19 2 27 5 18 2 -10 2 -26 0 -35z m3190 10 c-3 -10 -5 -4 -5 12 0 17 2
24 5 18 2 -7 2 -21 0 -30z m-4070 -10 c-3 -10 -5 -4 -5 12 0 17 2 24 5 18 2
-7 2 -21 0 -30z m4360 5 c-3 -7 -5 -2 -5 12 0 14 2 19 5 13 2 -7 2 -19 0 -25z
m40 0 c-3 -7 -5 -2 -5 12 0 14 2 19 5 13 2 -7 2 -19 0 -25z m4668 22 c3 -5 1
-10 -4 -10 -6 0 -11 5 -11 10 0 6 2 10 4 10 3 0 8 -4 11 -10z m115 0 c0 -5 -4
-10 -10 -10 -5 0 -10 5 -10 10 0 6 5 10 10 10 6 0 10 -4 10 -10z m-4910 -10
c0 -5 -2 -10 -4 -10 -3 0 -8 5 -11 10 -3 6 -1 10 4 10 6 0 11 -4 11 -10z
m-3810 -15 c0 -8 -4 -15 -10 -15 -5 0 -7 7 -4 15 4 8 8 15 10 15 2 0 4 -7 4
-15z m3407 -7 c-3 -8 -6 -5 -6 6 -1 11 2 17 5 13 3 -3 4 -12 1 -19z m5116 -37
c2 -10 1 -25 -4 -32 -6 -10 -9 -4 -9 19 0 36 5 42 13 13z m34 -3 c-3 -8 -6 -5
-6 6 -1 11 2 17 5 13 3 -3 4 -12 1 -19z m20 -25 c-3 -10 -5 -2 -5 17 0 19 2
27 5 18 2 -10 2 -26 0 -35z m90 -5 c-2 -13 -4 -5 -4 17 -1 22 1 32 4 23 2 -10
2 -28 0 -40z m240 5 c-3 -10 -5 -2 -5 17 0 19 2 27 5 18 2 -10 2 -26 0 -35z
m33 -11 c-7 -13 -9 -8 -9 23 0 35 1 37 10 17 6 -15 5 -30 -1 -40z m-319 7 c-5
-13 -10 -19 -10 -12 -1 15 10 45 15 40 3 -2 0 -15 -5 -28z m126 9 c-3 -8 -6
-5 -6 6 -1 11 2 17 5 13 3 -3 4 -12 1 -19z m20 -15 c-3 -10 -5 -4 -5 12 0 17
2 24 5 18 2 -7 2 -21 0 -30z m33 12 c0 -14 -2 -25 -4 -25 -2 0 -6 11 -8 25 -3
14 -1 25 3 25 5 0 9 -11 9 -25z m32 3 c-2 -10 -6 -18 -7 -18 -1 0 -5 8 -7 18
-3 11 0 19 7 19 7 0 10 -8 7 -19z m-5675 -35 c-3 -10 -5 -2 -5 17 0 19 2 27 5
18 2 -10 2 -26 0 -35z m481 6 c-3 -20 -5 -19 -9 9 -3 20 -2 29 4 23 5 -5 7
-19 5 -32z m5001 -3 c-9 -8 -10 -7 -5 7 3 10 7 24 7 30 1 7 3 4 6 -7 3 -10 -1
-23 -8 -30z m86 34 c3 -5 1 -10 -4 -10 -6 0 -11 5 -11 10 0 6 2 10 4 10 3 0 8
-4 11 -10z m-262 -15 c-3 -9 -8 -14 -10 -11 -3 3 -2 9 2 15 9 16 15 13 8 -4z
m134 -7 c-3 -8 -6 -5 -6 6 -1 11 2 17 5 13 3 -3 4 -12 1 -19z m263 7 c0 -8 -4
-15 -10 -15 -5 0 -7 7 -4 15 4 8 8 15 10 15 2 0 4 -7 4 -15z m-365 -5 c3 -5 1
-10 -4 -10 -6 0 -11 5 -11 10 0 6 2 10 4 10 3 0 8 -4 11 -10z m-95 -79 c0 -5
7 -17 16 -25 8 -9 11 -16 5 -16 -5 0 -16 9 -24 20 -8 12 -20 18 -30 15 -8 -4
-17 -2 -20 2 -3 5 8 10 24 11 16 1 29 -2 29 -7z m27 -13 c-3 -8 -6 -5 -6 6 -1
11 2 17 5 13 3 -3 4 -12 1 -19z m48 -6 c-2 -9 -4 -18 -4 -20 -1 -1 -7 3 -14
10 -10 9 -11 15 -3 24 14 16 25 8 21 -14z m-5068 -29 c-3 -10 -5 -2 -5 17 0
19 2 27 5 18 2 -10 2 -26 0 -35z m5093 31 c0 -8 -5 -12 -10 -9 -6 4 -8 11 -5
16 9 14 15 11 15 -7z m-140 -14 c-8 -5 -19 -10 -25 -10 -5 0 -3 5 5 10 8 5 20
10 25 10 6 0 3 -5 -5 -10z m-4773 -22 c-3 -8 -6 -5 -6 6 -1 11 2 17 5 13 3 -3
4 -12 1 -19z m3594 -30 c42 -64 59 -95 59 -105 0 -5 -5 0 -11 10 -17 28 -31 9
-15 -21 8 -15 16 -36 18 -47 1 -11 6 -22 9 -25 11 -9 19 -70 9 -70 -5 0 -18
17 -29 38 -22 43 -60 82 -48 49 4 -11 1 -27 -7 -38 -13 -19 -15 -18 -50 21
-20 22 -44 40 -53 41 -10 0 -13 3 -7 5 8 3 10 20 7 44 -4 26 -2 40 6 40 6 0
11 -4 11 -9 0 -10 30 -24 37 -17 2 2 -3 21 -11 41 -20 46 -20 51 -2 36 24 -20
46 -3 39 30 -3 16 -3 29 -1 29 3 0 20 -24 39 -52z m-220 -5 c-12 -20 -14 -14
-5 12 4 9 9 14 11 11 3 -2 0 -13 -6 -23z m1836 -45 c-2 -13 -4 -5 -4 17 -1 22
1 32 4 23 2 -10 2 -28 0 -40z m65 13 c2 -17 1 -28 -4 -25 -8 5 -12 54 -4 54 2
0 6 -13 8 -29z m97 2 c-1 -16 -3 -21 -6 -12 -2 10 -15 16 -33 16 -28 0 -35
-14 -15 -30 6 -5 4 -7 -5 -4 -8 2 -17 14 -18 27 -3 19 0 22 20 17 13 -4 30 -2
38 3 20 13 20 13 19 -17z m-4292 0 c0 -7 -6 -13 -14 -13 -7 0 -13 -4 -13 -10
0 -16 -21 -12 -37 8 -8 9 -12 11 -8 5 7 -14 -4 -16 -29 -7 -15 6 -15 8 1 19
22 16 100 14 100 -2z m3636 -11 c12 6 25 16 29 22 4 6 8 -2 8 -19 0 -23 -3
-27 -10 -15 -5 8 -10 11 -10 5 0 -5 -11 -11 -25 -11 -21 -2 -25 2 -24 25 2 23
2 24 6 4 4 -20 7 -22 26 -11z m88 16 c16 10 24 11 33 2 8 -8 6 -9 -8 -4 -13 5
-17 4 -12 -4 4 -7 4 -12 -1 -13 -4 0 -17 -2 -29 -3 -14 -2 -20 4 -22 18 -1 17
1 18 8 6 8 -13 13 -13 31 -2z m109 -12 c0 -13 -8 -30 -17 -37 -10 -8 -14 -9
-10 -2 4 6 3 14 -3 18 -5 3 -10 14 -9 23 0 14 2 14 8 -2 5 -14 10 -16 15 -8 4
7 4 17 1 22 -3 6 -1 10 4 10 6 0 11 -11 11 -24z m37 -13 c-3 -10 -5 -4 -5 12
0 17 2 24 5 18 2 -7 2 -21 0 -30z m76 30 c-7 -2 -13 -11 -13 -19 0 -9 5 -12
10 -9 6 3 10 1 10 -4 0 -14 -17 -14 -25 -1 -9 15 2 40 17 39 10 0 10 -2 1 -6z
m54 -18 c1 -16 1 -16 -3 -2 -8 24 -28 22 -21 -3 3 -11 1 -18 -4 -14 -5 3 -9
14 -9 25 0 27 34 21 37 -6z m20 -7 c-3 -7 -5 -2 -5 12 0 14 2 19 5 13 2 -7 2
-19 0 -25z m20 0 c-3 -7 -5 -2 -5 12 0 14 2 19 5 13 2 -7 2 -19 0 -25z m45 1
c-5 -36 -8 -36 -20 -1 -8 23 -7 28 7 29 14 1 16 -5 13 -28z m81 22 c4 10 6 9
6 -3 1 -10 -4 -18 -10 -18 -5 0 -7 -4 -4 -10 3 -5 1 -10 -4 -10 -6 0 -11 12
-11 28 0 19 3 23 9 13 7 -11 9 -11 14 0z m-374 -88 c10 -19 42 -24 53 -8 4 6
8 -3 8 -20 -1 -24 -3 -27 -10 -13 -6 10 -18 14 -30 11 -11 -3 -20 -1 -20 5 0
6 -7 18 -16 26 -8 9 -11 16 -5 16 5 0 14 -8 20 -17z m273 -23 c-2 -16 -6 -30
-8 -30 -2 0 -4 14 -4 30 0 17 4 30 8 30 5 0 7 -13 4 -30z m159 7 c-10 -9 -11
-8 -5 6 3 10 9 15 12 12 3 -3 0 -11 -7 -18z m76 -24 c-3 -10 -5 -2 -5 17 0 19
2 27 5 18 2 -10 2 -26 0 -35z m-542 9 c0 -10 7 -16 18 -16 9 1 17 -2 17 -7 0
-16 -38 -10 -44 7 -8 22 -8 49 1 40 4 -4 8 -15 8 -24z m372 -19 c-3 -10 -5 -2
-5 17 0 19 2 27 5 18 2 -10 2 -26 0 -35z m-206 -3 c6 0 8 8 5 18 -5 14 0 18
24 20 25 2 30 -1 29 -20 -1 -17 -2 -19 -6 -5 -5 20 -23 23 -23 3 0 -13 -20
-26 -41 -26 -5 0 -8 12 -8 28 2 23 2 24 6 5 2 -13 9 -23 14 -23z m99 9 c0 -35
-15 -31 -22 6 -4 17 -1 25 8 25 9 0 14 -11 14 -31z m142 7 c4 -17 1 -23 -9
-19 -14 5 -17 25 -6 36 9 10 10 9 15 -17z m35 -8 c-3 -7 -5 -2 -5 12 0 14 2
19 5 13 2 -7 2 -19 0 -25z m-112 2 c-3 -4 0 -11 5 -13 6 -3 5 -4 -2 -3 -7 1
-15 11 -16 21 -3 11 0 15 7 10 6 -3 9 -10 6 -15z m-5598 -22 c-3 -7 -5 -2 -5
12 0 14 2 19 5 13 2 -7 2 -19 0 -25z m5394 9 c-10 -9 -11 -8 -5 6 3 10 9 15
12 12 3 -3 0 -11 -7 -18z m-5184 -19 c-3 -7 -5 -2 -5 12 0 14 2 19 5 13 2 -7
2 -19 0 -25z m30 0 c-3 -7 -5 -2 -5 12 0 14 2 19 5 13 2 -7 2 -19 0 -25z m451
7 c-3 -3 -9 2 -12 12 -6 14 -5 15 5 6 7 -7 10 -15 7 -18z m99 -7 c-3 -7 -5 -2
-5 12 0 14 2 19 5 13 2 -7 2 -19 0 -25z m3137 -17 c-5 -5 -33 30 -34 43 0 4 9
-2 19 -15 11 -13 17 -26 15 -28z m1411 39 c3 -5 1 -10 -4 -10 -6 0 -11 5 -11
10 0 6 2 10 4 10 3 0 8 -4 11 -10z m-4528 -22 c-3 -8 -6 -5 -6 6 -1 11 2 17 5
13 3 -3 4 -12 1 -19z m3043 -43 c0 -5 -5 -3 -10 5 -5 8 -10 20 -10 25 0 6 5 3
10 -5 5 -8 10 -19 10 -25z m1493 -29 c7 -15 6 -18 -6 -13 -9 3 -18 1 -21 -6
-3 -9 -8 -8 -15 3 -10 13 -11 13 -12 0 0 -10 -2 -11 -6 -3 -5 14 21 45 31 36
3 -4 6 2 7 13 0 14 2 15 6 4 3 -8 10 -24 16 -34z m-97 10 c-3 -22 -16 -32 -16
-13 0 10 -4 17 -10 17 -5 0 -10 -7 -10 -15 0 -8 -5 -15 -12 -15 -6 0 -8 3 -5
7 4 3 3 11 -3 18 -6 8 1 12 25 13 25 2 33 -1 31 -12z m16 -28 c-6 -6 -7 0 -4
19 5 21 7 23 10 9 2 -10 0 -22 -6 -28z m-1428 -22 c9 -30 21 -58 26 -61 6 -4
7 -11 4 -17 -8 -12 -50 60 -59 101 -12 54 13 34 29 -23z m23 22 c-3 -7 -5 -2
-5 12 0 14 2 19 5 13 2 -7 2 -19 0 -25z m184 -55 c34 -55 17 -46 -20 10 -19
29 -27 46 -18 38 9 -7 26 -29 38 -48z m-186 -175 c19 -39 19 -87 0 -112 -8
-11 -15 -28 -15 -37 0 -10 -5 -21 -10 -24 -12 -8 -3 43 12 61 12 17 -2 123
-22 164 -26 51 -38 118 -31 158 1 4 13 -35 26 -86 13 -51 31 -107 40 -124z
m1682 125 c-3 -10 -5 -2 -5 17 0 19 2 27 5 18 2 -10 2 -26 0 -35z m-313 20
c24 9 27 -7 4 -22 -16 -10 -18 -10 -12 0 5 8 2 11 -7 7 -10 -4 -15 1 -17 15
-1 16 1 18 7 8 5 -8 16 -11 25 -8z m153 -20 c-3 -10 -5 -4 -5 12 0 17 2 24 5
18 2 -7 2 -21 0 -30z m72 -3 c0 -10 -3 -8 -9 5 -12 27 -12 43 0 25 5 -8 9 -22
9 -30z m137 5 c-7 -19 -36 -8 -36 13 0 13 3 12 15 -4 14 -18 14 -18 15 6 1 14
4 19 7 12 3 -7 2 -19 -1 -27z m42 28 c-9 -2 -19 -14 -21 -26 -4 -18 -5 -17 -6
6 -1 22 3 27 22 26 15 -1 17 -3 5 -6z m-5291 -50 c-3 -10 -5 -2 -5 17 0 19 2
27 5 18 2 -10 2 -26 0 -35z m4803 27 c22 14 40 12 40 -5 0 -24 -64 -13 -67 11
-3 17 -2 17 5 2 5 -12 11 -15 22 -8z m167 -2 c-3 -8 -6 -5 -6 6 -1 11 2 17 5
13 3 -3 4 -12 1 -19z m183 6 c0 -11 5 -14 18 -9 12 4 14 3 6 -5 -13 -13 -44
-3 -44 16 0 8 5 14 10 14 6 0 10 -7 10 -16z m-130 -1 c0 -3 -6 -11 -14 -19
-15 -14 -33 -3 -22 14 5 9 36 12 36 5z m294 -8 c3 -8 1 -15 -4 -15 -6 0 -10 7
-10 15 0 8 2 15 4 15 2 0 6 -7 10 -15z m-5447 -27 c-3 -8 -6 -5 -6 6 -1 11 2
17 5 13 3 -3 4 -12 1 -19z m5500 -75 c-3 -10 -5 -2 -5 17 0 19 2 27 5 18 2
-10 2 -26 0 -35z m-532 15 c6 -4 2 -8 -7 -8 -10 0 -18 7 -18 17 0 9 3 12 8 7
4 -5 12 -12 17 -16z m119 11 c11 9 16 10 16 2 0 -6 -4 -11 -9 -11 -5 0 -11 -9
-14 -20 -3 -11 -11 -20 -19 -19 -10 0 -10 2 0 6 18 7 15 21 -8 28 -11 3 -20
11 -20 16 0 5 9 4 19 -3 15 -9 23 -9 35 1z m134 -31 c15 -3 15 -4 -1 -11 -13
-5 -20 -1 -26 16 -5 12 -6 27 -2 32 3 6 7 0 9 -12 2 -12 11 -23 20 -25z m27
20 c6 -4 2 -8 -7 -8 -10 0 -18 7 -18 17 0 9 3 12 8 7 4 -5 12 -12 17 -16z
m-94 -31 c-8 -8 -11 -5 -11 9 0 27 14 41 18 19 2 -9 -1 -22 -7 -28z m141 18
c-2 -14 -6 -25 -8 -25 -2 0 -4 11 -4 25 0 14 4 25 9 25 4 0 6 -11 3 -25z m25
-7 c-3 -7 -5 -2 -5 12 0 14 2 19 5 13 2 -7 2 -19 0 -25z m70 19 c8 10 12 12 8
6 -3 -7 -2 -13 4 -13 5 0 12 5 14 10 3 6 5 6 3 -1 -1 -6 -16 -17 -34 -25 -31
-13 -32 -13 -32 14 1 24 2 25 11 9 10 -18 11 -18 26 0z m-290 -29 c-3 -8 -6
-5 -6 6 -1 11 2 17 5 13 3 -3 4 -12 1 -19z m33 6 c0 -8 -5 -12 -10 -9 -6 4 -8
11 -5 16 9 14 15 11 15 -7z m207 -6 c-3 -8 -6 -5 -6 6 -1 11 2 17 5 13 3 -3 4
-12 1 -19z m-5300 -25 c-3 -10 -5 -4 -5 12 0 17 2 24 5 18 2 -7 2 -21 0 -30z
m4566 -22 c6 -26 11 -30 21 -21 11 8 19 1 39 -37 13 -26 32 -64 42 -83 10 -19
33 -53 51 -76 27 -32 31 -43 21 -54 -10 -10 -9 -12 5 -7 24 8 42 -17 29 -41
-10 -19 -6 -32 11 -32 5 0 6 10 2 22 -5 17 2 13 32 -17 22 -22 37 -44 35 -49
-2 -5 -10 -1 -17 9 -8 10 -16 16 -20 13 -3 -3 3 -15 12 -27 13 -15 21 -17 30
-10 17 14 57 -8 50 -27 -3 -8 1 -14 9 -14 15 0 16 -3 19 -39 1 -23 26 -53 26
-33 0 7 -4 12 -8 12 -5 0 -9 7 -9 15 0 22 25 18 32 -5 3 -10 22 -29 41 -40 18
-12 34 -24 34 -26 0 -3 -5 -2 -12 2 -44 27 -322 45 -398 26 -19 -5 -75 -28
-123 -51 -49 -22 -91 -41 -93 -41 -21 0 -379 -186 -396 -205 -12 -14 -25 -25
-28 -25 -4 0 -40 -18 -80 -40 -40 -22 -77 -37 -84 -33 -6 3 -8 3 -4 -2 11 -11
-40 -48 -54 -39 -7 4 -10 4 -6 -1 4 -4 -14 -22 -40 -39 -26 -17 -75 -52 -109
-78 -33 -26 -64 -44 -68 -40 -3 4 -5 0 -3 -8 2 -8 -11 -22 -32 -32 -19 -10
-34 -21 -32 -25 1 -5 -4 -8 -10 -8 -7 -1 -12 -7 -10 -15 2 -8 -5 -20 -15 -27
-31 -23 -233 -226 -233 -235 0 -4 -5 -8 -11 -8 -6 0 -9 7 -5 15 3 8 2 15 -2
15 -4 0 -14 21 -22 48 -8 26 -16 53 -18 60 -2 7 2 11 10 10 10 -2 12 14 10 73
-3 63 0 83 18 120 13 24 28 47 34 51 6 4 7 8 3 8 -4 0 -2 10 4 22 7 13 23 61
35 108 35 130 31 287 -9 312 -8 5 -1 19 23 43 43 45 76 65 67 41 -7 -19 1 -46
14 -46 5 0 14 10 19 23 18 43 76 131 88 135 10 3 11 -8 6 -47 -4 -33 -3 -51 4
-51 6 0 31 32 57 70 26 39 51 70 56 70 6 0 9 6 8 13 -4 30 4 44 39 69 53 37
326 178 346 178 9 0 16 4 16 9 0 11 229 102 315 126 33 9 69 21 79 27 33 18
110 34 131 28 11 -4 23 -21 28 -39z m18 -4 c-8 -8 -11 -3 -11 19 1 25 2 27 11
11 8 -14 8 -22 0 -30z m-1127 -72 c3 -27 9 -67 12 -87 5 -31 3 -38 -10 -38 -9
0 -16 -8 -16 -17 0 -16 2 -16 11 -3 8 11 9 9 3 -10 -3 -14 -10 -32 -15 -40 -6
-11 -9 -9 -10 10 -2 41 -9 92 -18 142 -4 26 -4 53 0 60 5 7 9 26 9 43 0 28 1
28 14 10 7 -11 16 -42 20 -70z m22 39 c-4 -20 -10 -34 -13 -30 -3 3 -2 21 1
42 4 20 10 34 13 30 3 -3 2 -21 -1 -42z m1439 16 c3 -5 1 -10 -4 -10 -6 0 -11
5 -11 10 0 6 2 10 4 10 3 0 8 -4 11 -10z m42 -22 c-1 -10 -2 -18 -4 -18 -1 0
-7 8 -12 18 -7 14 -6 19 4 19 7 0 13 -9 12 -19z m33 12 c0 -5 0 -13 -1 -16 0
-4 5 -11 13 -16 11 -8 10 -9 -1 -6 -17 5 -35 48 -21 48 6 0 10 -4 10 -10z m27
-12 c-3 -8 -6 -5 -6 6 -1 11 2 17 5 13 3 -3 4 -12 1 -19z m66 9 c4 3 7 -2 7
-12 0 -10 -3 -15 -7 -12 -3 4 -13 1 -21 -6 -13 -9 -14 -9 -8 1 4 6 3 12 -3 12
-5 0 -12 -6 -14 -12 -3 -8 -6 -6 -6 5 -1 9 6 17 15 17 9 0 12 5 8 13 -6 9 -5
9 8 0 8 -7 18 -10 21 -6z m284 -129 c-2 -13 -4 -5 -4 17 -1 22 1 32 4 23 2
-10 2 -28 0 -40z m48 32 c-3 -5 -1 -10 4 -10 6 0 11 -5 11 -11 0 -8 -5 -8 -15
1 -13 11 -12 30 1 30 3 0 2 -4 -1 -10z m-522 -28 c12 6 25 16 29 22 4 6 8 -2
8 -19 0 -21 -3 -26 -9 -16 -6 10 -13 10 -28 2 -24 -12 -34 -5 -32 23 2 20 2
19 6 -1 4 -20 7 -22 26 -11z m88 16 c16 10 24 11 33 2 8 -8 6 -9 -9 -4 -11 4
-17 3 -13 -1 9 -10 -30 -40 -40 -31 -3 4 -7 17 -9 29 -2 17 -1 19 7 7 8 -13
13 -13 31 -2z m124 -10 c5 4 5 1 1 -5 -4 -7 -3 -13 3 -13 5 0 12 10 14 23 4
18 4 17 6 -6 1 -22 -3 -28 -16 -25 -10 1 -23 -1 -30 -5 -9 -6 -12 1 -10 23 2
25 4 27 13 15 6 -8 15 -11 19 -7z m100 -8 c-4 -12 -9 -19 -12 -17 -3 3 -2 15
2 27 4 12 9 19 12 17 3 -3 2 -15 -2 -27z m15 -7 c-11 -17 -11 -17 -6 0 3 10 6
24 7 30 0 9 2 9 5 0 3 -7 0 -20 -6 -30z m42 -3 c6 0 8 8 6 18 -4 14 1 18 23
20 16 1 29 -2 29 -8 0 -5 -7 -7 -15 -4 -9 4 -15 0 -15 -9 0 -16 -27 -30 -41
-21 -5 3 -8 15 -8 27 2 22 2 22 6 0 2 -13 9 -23 15 -23z m81 20 c-3 -12 -8
-19 -11 -16 -5 6 5 36 12 36 2 0 2 -9 -1 -20z m44 -12 c-3 -7 -5 -2 -5 12 0
14 2 19 5 13 2 -7 2 -19 0 -25z m86 12 c-3 -11 -9 -20 -14 -20 -14 0 -11 28 4
33 6 3 13 6 14 6 0 1 -1 -8 -4 -19z m64 -2 c-3 -8 -6 -5 -6 6 -1 11 2 17 5 13
3 -3 4 -12 1 -19z m-5570 -20 c-3 -7 -5 -2 -5 12 0 14 2 19 5 13 2 -7 2 -19 0
-25z m5090 10 c-3 -8 -6 -5 -6 6 -1 11 2 17 5 13 3 -3 4 -12 1 -19z m466 3 c3
-13 1 -18 -9 -14 -7 2 -10 11 -7 19 7 19 10 18 16 -5z m-4876 -33 c-3 -7 -5
-2 -5 12 0 14 2 19 5 13 2 -7 2 -19 0 -25z m90 10 c-3 -8 -6 -5 -6 6 -1 11 2
17 5 13 3 -3 4 -12 1 -19z m-650 -10 c-3 -8 -6 -5 -6 6 -1 11 2 17 5 13 3 -3
4 -12 1 -19z m5072 -56 c0 -14 -2 -14 -8 3 -6 16 -9 14 -15 -15 -5 -27 -9 -32
-16 -20 -5 8 -10 20 -10 25 0 6 5 3 10 -5 8 -12 10 -11 10 6 0 11 3 24 6 27
10 10 24 -2 23 -21z m118 -24 c-2 -13 -4 -5 -4 17 -1 22 1 32 4 23 2 -10 2
-28 0 -40z m65 -8 c6 0 9 -2 6 -5 -12 -12 -34 7 -32 28 4 40 7 42 11 10 2 -18
9 -33 15 -33z m235 13 c-3 -10 -5 -2 -5 17 0 19 2 27 5 18 2 -10 2 -26 0 -35z
m-670 5 c-3 -8 -6 -5 -6 6 -1 11 2 17 5 13 3 -3 4 -12 1 -19z m306 15 c-7 -2
-13 -11 -13 -19 0 -9 5 -12 10 -9 6 3 10 1 10 -4 0 -14 -17 -14 -25 -1 -9 15
2 40 17 39 10 0 10 -2 1 -6z m41 -1 c-7 -4 -14 -16 -17 -27 -4 -15 -5 -14 -6
8 -1 20 4 27 17 27 11 0 13 -3 6 -8z m179 -12 c-3 -11 -7 -20 -9 -20 -2 0 -4
9 -4 20 0 11 4 20 9 20 5 0 7 -9 4 -20z m24 -17 c-3 -10 -5 -4 -5 12 0 17 2
24 5 18 2 -7 2 -21 0 -30z m34 17 c6 0 7 5 3 12 -5 7 -3 8 6 3 10 -6 10 -11
-3 -20 -9 -7 -13 -16 -9 -20 4 -5 1 -5 -5 -1 -7 4 -13 17 -12 29 0 12 3 16 6
10 2 -7 9 -13 14 -13z m-445 -18 c-17 -16 -18 -16 -5 5 7 12 15 20 18 17 3 -2
-3 -12 -13 -22z m125 1 c-12 -20 -14 -14 -5 12 4 9 9 14 11 11 3 -2 0 -13 -6
-23z m-86 -3 c3 -5 1 -10 -4 -10 -6 0 -11 5 -11 10 0 6 2 10 4 10 3 0 8 -4 11
-10z m8 -94 c8 -16 6 -18 -7 -13 -9 4 -16 2 -16 -3 0 -6 -9 -10 -20 -10 -11 0
-20 5 -20 11 0 15 26 39 34 32 3 -4 6 2 7 13 0 14 2 15 6 4 3 -8 10 -24 16
-34z m-2923 -22 c6 -27 15 -67 21 -89 5 -22 14 -73 20 -113 10 -65 9 -78 -9
-125 -39 -99 -37 -110 18 -163 48 -46 72 -87 29 -48 -22 19 -22 19 -8 -4 8
-12 19 -20 26 -18 15 6 47 -30 38 -43 -3 -7 0 -8 9 -5 8 3 19 -3 25 -14 6 -10
33 -29 61 -41 48 -21 62 -35 39 -43 -6 -2 -15 -28 -21 -57 -9 -50 -7 -57 26
-128 l36 -74 -20 -57 c-11 -31 -17 -64 -14 -74 6 -20 -15 -65 -25 -51 -3 5
-27 24 -53 43 -27 18 -48 34 -48 35 0 1 11 29 25 63 14 34 25 71 25 82 0 11 4
20 8 20 9 0 7 30 -9 133 -6 37 -15 67 -19 67 -5 0 -16 3 -26 7 -12 4 -15 3
-10 -5 4 -7 2 -10 -7 -7 -7 3 -30 -6 -51 -20 -20 -14 -39 -25 -42 -25 -7 0
-27 -20 -45 -48 -16 -22 -17 -19 -63 97 -25 66 -46 129 -46 141 0 12 -4 19 -8
16 -11 -7 -60 138 -72 216 -6 35 -13 78 -16 96 -4 20 -2 32 5 32 6 0 11 7 11
16 0 9 5 12 12 8 7 -4 8 -3 4 4 -7 12 49 95 85 126 16 13 23 15 29 6 5 -7 13
-9 21 -5 9 6 6 11 -10 17 -12 4 -20 12 -16 17 3 6 12 8 20 4 11 -3 13 -1 9 10
-5 15 13 63 22 55 2 -3 9 -27 14 -54z m2743 31 c-3 -9 -8 -14 -10 -11 -3 3 -2
9 2 15 9 16 15 13 8 -4z m47 -7 c0 -10 -4 -18 -9 -18 -5 0 -11 8 -13 18 -3 11
0 19 8 19 8 0 14 -9 14 -19z m30 12 c0 -5 0 -13 -1 -16 0 -4 5 -11 13 -16 11
-8 10 -9 -1 -6 -17 5 -35 48 -21 48 6 0 10 -4 10 -10z m27 -12 c-3 -8 -6 -5
-6 6 -1 11 2 17 5 13 3 -3 4 -12 1 -19z m-4930 -10 c-3 -8 -6 -5 -6 6 -1 11 2
17 5 13 3 -3 4 -12 1 -19z m5390 -110 c-2 -13 -4 -5 -4 17 -1 22 1 32 4 23 2
-10 2 -28 0 -40z m93 32 c0 -5 -4 -10 -10 -10 -5 0 -10 5 -10 10 0 6 5 10 10
10 6 0 10 -4 10 -10z m-482 -26 c-2 -14 -8 -30 -16 -36 -10 -9 -11 -6 -4 13 5
13 7 30 5 37 -3 6 0 12 6 12 6 0 10 -12 9 -26z m39 -11 c-3 -10 -5 -4 -5 12 0
17 2 24 5 18 2 -7 2 -21 0 -30z m78 8 c-6 -5 -25 10 -25 20 0 5 6 4 14 -3 8
-7 12 -15 11 -17z m27 7 c-4 -18 -2 -20 14 -14 15 6 17 5 7 -5 -17 -17 -38 3
-30 25 9 24 16 19 9 -6z m85 -10 c-9 -6 -8 -8 2 -8 8 0 11 -3 7 -7 -4 -5 -14
1 -22 11 -20 28 -17 38 6 24 14 -9 16 -14 7 -20z m44 12 c6 0 7 5 4 10 -3 6
-2 10 2 10 5 0 14 -10 22 -22 9 -16 9 -19 1 -11 -7 6 -19 9 -27 6 -12 -5 -12
-7 -1 -15 10 -8 10 -9 -2 -5 -8 2 -16 14 -17 28 -1 13 0 18 3 12 3 -7 10 -13
15 -13z m70 7 c-6 -8 -8 -17 -4 -20 3 -4 1 -7 -5 -7 -7 0 -12 9 -12 20 0 12 7
20 16 20 13 0 14 -3 5 -13z m77 -18 c-3 -8 -7 -3 -11 10 -4 17 -3 21 5 13 5
-5 8 -16 6 -23z m-398 -5 c0 -8 -5 -12 -10 -9 -6 4 -8 11 -5 16 9 14 15 11 15
-7z m350 1 c0 -8 -4 -15 -8 -15 -5 0 -9 7 -9 15 0 8 4 15 9 15 4 0 8 -7 8 -15z
m-4503 -27 c-3 -8 -6 -5 -6 6 -1 11 2 17 5 13 3 -3 4 -12 1 -19z m710 0 c-3
-8 -6 -5 -6 6 -1 11 2 17 5 13 3 -3 4 -12 1 -19z m3639 -62 c9 -4 14 2 14 17
0 16 3 18 9 8 11 -17 3 -48 -14 -55 -9 -3 -12 0 -9 8 3 7 -2 16 -10 19 -9 4
-15 14 -15 24 1 16 2 16 6 1 2 -9 11 -19 19 -22z m171 -13 c-3 -10 -5 -2 -5
17 0 19 2 27 5 18 2 -10 2 -26 0 -35z m30 25 c-3 -8 -6 -5 -6 6 -1 11 2 17 5
13 3 -3 4 -12 1 -19z m-94 -24 c-18 -29 -37 -27 -39 4 -2 20 -1 20 3 2 2 -11
9 -20 15 -20 6 0 8 9 5 20 -3 11 -1 18 4 14 5 -3 9 0 9 6 0 6 4 8 10 5 6 -4 3
-16 -7 -31z m-283 22 c0 -3 -4 -8 -10 -11 -5 -3 -10 -1 -10 4 0 6 5 11 10 11
6 0 10 -2 10 -4z m33 -23 c5 -26 4 -26 -9 -8 -16 22 -18 35 -5 35 5 0 11 -12
14 -27z m46 -2 c-7 -2 -6 -7 2 -12 11 -7 11 -9 1 -9 -7 0 -15 7 -18 15 -4 8
-9 13 -13 10 -4 -2 -8 2 -8 9 0 10 6 10 23 2 13 -6 18 -13 13 -15z m33 0 c-3
-16 -7 -20 -10 -11 -2 8 -11 20 -18 26 -12 9 -10 12 9 12 20 0 23 -4 19 -27z
m25 -3 c-3 -7 -5 -2 -5 12 0 14 2 19 5 13 2 -7 2 -19 0 -25z m90 -5 c-3 -10
-5 -4 -5 12 0 17 2 24 5 18 2 -7 2 -21 0 -30z m-587 -48 c19 -19 41 -35 49
-35 14 0 14 -2 1 -11 -12 -8 -10 -9 8 -4 12 3 32 3 43 0 17 -6 19 -9 8 -17
-11 -8 -10 -9 3 -4 21 6 119 -34 100 -41 -7 -3 -19 1 -27 7 -18 15 -20 3 -2
-13 6 -7 25 -13 42 -14 16 -1 35 -9 41 -18 6 -8 14 -12 17 -8 4 3 7 -1 7 -9 0
-13 -13 -11 -77 12 -43 15 -118 40 -168 55 -49 16 -94 32 -99 36 -15 14 -36
11 -36 -5 0 -7 11 -21 25 -30 14 -9 23 -22 19 -28 -4 -7 -3 -8 4 -4 13 8 94
-43 87 -54 -3 -4 2 -11 11 -14 10 -4 13 -2 8 7 -4 6 12 -4 37 -25 24 -20 43
-44 43 -52 -1 -12 2 -14 10 -7 9 8 23 0 49 -27 21 -21 34 -42 30 -47 -5 -4 -2
-5 5 -1 8 5 22 -1 36 -16 37 -39 90 -83 100 -83 5 0 11 -6 14 -14 3 -9 0 -11
-9 -7 -8 4 -4 -1 9 -11 30 -24 52 -69 46 -91 -5 -13 -4 -14 4 -3 12 17 23 1
24 -39 1 -16 6 -28 11 -27 17 3 109 -184 103 -209 -4 -13 -2 -26 4 -29 5 -3
10 -1 10 6 0 7 3 9 6 6 4 -4 2 -13 -4 -20 -12 -14 -6 -27 12 -27 6 0 4 5 -4
11 -10 7 -11 9 -2 7 17 -4 46 -69 30 -65 -6 1 -13 -5 -15 -13 -3 -10 -2 -11 4
-3 5 7 13 9 19 5 15 -11 47 -89 40 -100 -3 -6 1 -17 9 -25 8 -9 15 -25 15 -36
0 -11 5 -23 11 -26 5 -4 8 -21 5 -38 -5 -24 -4 -27 3 -12 10 23 8 25 42 -70
36 -105 47 -145 38 -139 -5 3 -9 0 -9 -5 0 -6 4 -11 9 -11 5 0 12 -13 16 -30
4 -16 11 -30 16 -30 6 0 6 -8 -1 -19 -5 -11 -10 -26 -9 -33 0 -7 4 -4 9 7 8
18 9 18 9 2 1 -10 -4 -27 -9 -38 -7 -13 -7 -19 0 -19 5 0 10 7 10 15 0 8 4 15
9 15 14 0 21 -43 10 -57 -6 -7 -9 -18 -6 -25 3 -8 6 -6 6 5 1 10 6 15 12 12 6
-4 8 -13 5 -20 -2 -7 4 -15 15 -18 14 -4 19 0 20 16 1 20 2 20 9 -3 13 -40 12
-56 -2 -42 -21 21 -34 13 -73 -45 -38 -60 -41 -56 -19 31 5 21 3 25 -9 21 -10
-4 -17 3 -23 22 l-8 28 -6 -35 c-7 -40 -2 -58 12 -39 6 10 7 6 3 -11 -4 -14
-11 -29 -16 -34 -5 -6 -9 -17 -9 -25 0 -25 -41 -101 -55 -101 -7 0 -17 -6 -23
-13 -6 -7 -57 -36 -114 -64 -212 -105 -186 -98 -355 -100 l-152 -2 -31 47
c-16 26 -48 74 -70 106 -21 33 -36 65 -33 70 4 6 3 8 -1 4 -5 -4 -31 27 -58
68 -28 41 -55 74 -59 74 -5 0 -8 3 -7 8 1 4 -14 25 -35 47 -20 22 -37 43 -37
46 0 4 -13 22 -30 40 -16 19 -28 40 -25 47 3 7 1 11 -4 8 -9 -6 -71 58 -71 74
0 5 -6 9 -12 7 -7 -1 -12 4 -10 11 1 8 -2 11 -7 8 -9 -6 -61 65 -61 83 0 6 -6
14 -13 18 -21 13 -70 83 -59 83 6 0 15 -6 19 -13 4 -8 20 -17 36 -21 44 -10
33 15 -31 76 -72 69 -118 93 -229 119 -49 12 -89 22 -91 24 -6 5 146 75 163
75 21 0 55 18 55 29 0 5 -11 11 -25 13 -14 3 -25 1 -25 -4 0 -4 -12 -5 -26 -2
-19 5 -25 4 -20 -5 4 -7 0 -11 -11 -11 -23 0 -78 103 -93 175 -34 156 -35 194
-12 305 l10 45 -46 -51 -45 -51 2 -124 c1 -86 -1 -119 -9 -109 -5 8 -10 30
-10 48 0 35 -15 72 -29 72 -5 0 -24 -35 -41 -77 -18 -43 -43 -94 -57 -113
l-24 -35 6 56 c17 156 31 215 66 263 19 27 44 62 55 80 65 96 298 282 339 270
14 -4 16 -3 6 4 -16 12 3 27 21 16 7 -4 8 -3 4 4 -9 14 190 116 211 108 8 -3
11 -2 8 3 -6 11 75 37 195 61 128 27 141 25 180 -15z m427 -37 c-3 -8 -6 -5
-6 6 -1 11 2 17 5 13 3 -3 4 -12 1 -19z m-60 -25 c-3 -10 -5 -4 -5 12 0 17 2
24 5 18 2 -7 2 -21 0 -30z m20 5 c-3 -7 -5 -2 -5 12 0 14 2 19 5 13 2 -7 2
-19 0 -25z m70 -5 c-3 -10 -5 -4 -5 12 0 17 2 24 5 18 2 -7 2 -21 0 -30z m63
15 c0 -10 -4 -18 -9 -18 -5 0 -11 8 -13 18 -3 11 0 19 8 19 8 0 14 -9 14 -19z
m23 7 c4 -8 2 -17 -3 -20 -6 -4 -10 3 -10 14 0 25 6 27 13 6z m196 -12 c0 -16
-3 -22 -6 -15 -2 6 -9 12 -14 12 -6 0 -7 -5 -3 -12 4 -7 3 -8 -4 -4 -17 10
-15 26 3 26 8 0 15 5 15 10 0 6 2 10 5 10 3 0 5 -12 4 -27z m58 -10 c-3 -10
-5 -4 -5 12 0 17 2 24 5 18 2 -7 2 -21 0 -30z m183 17 c0 -11 -4 -20 -10 -20
-5 0 -10 9 -10 20 0 11 5 20 10 20 6 0 10 -9 10 -20z m17 -12 c-3 -7 -5 -2 -5
12 0 14 2 19 5 13 2 -7 2 -19 0 -25z m53 2 c0 -16 -2 -30 -4 -30 -2 0 -6 14
-8 30 -3 17 -1 30 4 30 4 0 8 -13 8 -30z m-437 13 c-7 -2 -19 -2 -25 0 -7 3
-2 5 12 5 14 0 19 -2 13 -5z m214 -15 c-3 -8 -6 -5 -6 6 -1 11 2 17 5 13 3 -3
4 -12 1 -19z m196 2 c3 -11 1 -18 -4 -14 -5 3 -9 12 -9 20 0 20 7 17 13 -6z
m-676 -5 c0 -8 -4 -12 -9 -9 -5 3 -6 10 -3 15 9 13 12 11 12 -6z m563 0 c0
-11 -29 -11 -33 -1 -4 10 1 12 14 9 10 -3 19 -7 19 -8z m-293 -1 c-3 -3 -12
-4 -19 -1 -8 3 -5 6 6 6 11 1 17 -2 13 -5z m70 -16 c-3 -8 -6 -5 -6 6 -1 11 2
17 5 13 3 -3 4 -12 1 -19z m-3517 -37 c0 -22 -4 -43 -10 -46 -5 -3 -10 -11
-10 -16 0 -6 5 -7 11 -3 7 4 10 -7 9 -32 -2 -22 0 -46 3 -54 3 -8 8 -37 11
-65 7 -68 30 -179 55 -260 25 -81 25 -82 4 -64 -10 8 -35 23 -55 33 -21 10
-35 23 -31 29 3 6 1 7 -5 3 -6 -3 -39 6 -74 21 -73 31 -73 31 -65 39 4 4 15 1
24 -7 16 -13 17 -12 4 4 -8 10 -19 16 -26 13 -6 -2 -35 2 -64 10 -37 9 -59 10
-72 3 -24 -13 -24 -12 11 -51 17 -18 30 -37 30 -42 0 -6 12 -23 27 -38 19 -19
22 -28 12 -29 -8 -1 -70 -3 -139 -5 -69 -1 -141 -6 -160 -9 -33 -5 -34 -4 -16
10 11 8 16 18 11 22 -4 5 -10 2 -12 -4 -3 -7 -11 -13 -19 -13 -8 0 -14 -4 -14
-9 0 -5 -7 -11 -15 -14 -8 -4 -3 9 13 32 20 29 32 37 52 35 14 -2 17 -1 7 2
-10 3 -14 10 -10 17 4 7 8 17 9 24 4 25 47 71 61 66 11 -5 14 -1 9 13 -7 24 6
46 25 42 8 -2 13 4 11 13 -1 9 5 23 15 30 11 9 14 10 9 2 -13 -22 10 -14 34
12 13 14 18 25 12 25 -7 0 -12 -4 -12 -10 0 -5 -8 -10 -17 -10 -14 0 -13 4 6
24 13 14 29 22 37 19 10 -4 12 0 8 11 -7 19 7 21 24 4 14 -14 16 -32 3 -24
-17 11 -39 -5 -34 -23 3 -13 11 -17 24 -14 10 3 16 10 13 15 -3 5 4 12 15 15
17 4 19 8 9 20 -9 11 -9 16 0 22 6 4 8 12 3 20 -7 11 -11 10 -19 -5 -6 -10
-14 -15 -18 -11 -9 9 47 57 58 50 5 -2 18 3 30 13 l23 16 -25 -5 c-21 -5 -16
2 25 39 47 42 81 60 56 30 -15 -18 5 -34 22 -17 9 9 7 10 -8 5 -19 -7 -19 -7
-2 13 9 11 15 22 12 25 -3 2 7 15 21 29 25 24 26 24 40 5 8 -11 14 -15 14 -9
0 7 -5 15 -10 18 -8 5 -7 11 1 21 20 24 29 16 29 -25z m3337 -158 c-3 -10 -5
-4 -5 12 0 17 2 24 5 18 2 -7 2 -21 0 -30z m33 12 c0 -14 -3 -25 -7 -25 -5 0
-8 11 -8 25 0 14 3 25 8 25 4 0 7 -11 7 -25z m-53 -17 c-3 -7 -5 -2 -5 12 0
14 2 19 5 13 2 -7 2 -19 0 -25z m70 0 c-3 -7 -5 -2 -5 12 0 14 2 19 5 13 2 -7
2 -19 0 -25z m20 -5 c-3 -10 -5 -4 -5 12 0 17 2 24 5 18 2 -7 2 -21 0 -30z
m20 0 c-3 -10 -5 -4 -5 12 0 17 2 24 5 18 2 -7 2 -21 0 -30z m-5280 5 c-3 -8
-6 -5 -6 6 -1 11 2 17 5 13 3 -3 4 -12 1 -19z m5040 -10 c-3 -7 -5 -2 -5 12 0
14 2 19 5 13 2 -7 2 -19 0 -25z m100 10 c-3 -8 -6 -5 -6 6 -1 11 2 17 5 13 3
-3 4 -12 1 -19z m170 0 c-3 -8 -6 -5 -6 6 -1 11 2 17 5 13 3 -3 4 -12 1 -19z
m-5440 -30 c-3 -8 -6 -5 -6 6 -1 11 2 17 5 13 3 -3 4 -12 1 -19z m40 -115 c-3
-10 -5 -4 -5 12 0 17 2 24 5 18 2 -7 2 -21 0 -30z m2334 -80 c5 -93 -13 -164
-73 -295 -26 -58 -33 -66 -48 -58 -16 9 -18 6 -13 -29 5 -33 2 -41 -16 -50
-11 -7 -21 -20 -21 -30 0 -29 -21 -81 -31 -75 -5 3 -6 -2 -3 -10 3 -9 -4 -31
-16 -51 -17 -28 -19 -35 -7 -35 8 0 24 15 36 33 23 36 26 34 10 -12 -6 -17
-16 -31 -23 -31 -7 0 -77 -34 -157 -75 -79 -41 -147 -75 -151 -75 -21 0 11
-47 99 -148 18 -21 27 -39 22 -41 -6 -2 -1 -14 11 -26 17 -18 20 -30 15 -55
l-7 -32 -33 32 c-37 36 -55 33 -55 -8 0 -26 -232 -562 -256 -592 -6 -8 -30
-51 -51 -95 -22 -44 -52 -100 -67 -123 -27 -42 -29 -44 -64 -36 -20 4 -50 8
-65 7 l-28 0 35 36 c32 33 171 304 246 481 15 36 51 119 80 185 29 66 56 135
62 153 13 46 39 42 66 -10 13 -24 21 -35 18 -26 -3 10 -1 20 4 23 22 14 -5 40
-62 61 -12 4 -18 17 -18 35 0 24 4 29 25 29 14 0 42 -7 62 -15 20 -8 38 -13
41 -10 10 10 -33 35 -71 41 l-38 7 7 66 c9 88 33 139 143 304 98 146 106 153
166 125 18 -8 29 -8 36 -1 16 16 -40 43 -88 43 l-38 1 28 24 c15 14 37 25 49
25 16 0 18 3 9 13 -17 21 40 192 80 240 29 35 124 107 141 107 5 0 9 -12 9
-27z m1196 -180 c-9 -16 -22 -55 -30 -87 -18 -68 -26 -80 -22 -34 2 18 3 47 4
63 1 24 3 27 12 15 8 -11 9 -8 4 13 -3 16 -2 26 3 23 5 -3 15 6 22 19 7 14 15
23 17 21 3 -2 -2 -17 -10 -33z m69 -70 c0 -27 3 -75 7 -107 6 -48 4 -63 -10
-78 -31 -34 -36 -21 -30 75 4 73 21 157 31 157 0 0 1 -21 2 -47z m-856 -19 c0
-27 -4 -43 -10 -39 -5 3 -10 24 -10 46 0 21 5 39 10 39 6 0 10 -21 10 -46z
m-1217 -11 c-11 -9 -20 -10 -27 -3 -5 5 -17 10 -25 9 -11 0 -12 -2 -3 -6 26
-10 10 -21 -20 -12 -17 5 -34 7 -36 4 -2 -2 8 -7 22 -11 26 -6 25 -7 -28 -40
-30 -19 -57 -41 -60 -49 -3 -8 -11 -15 -18 -15 -9 0 -8 3 2 10 13 9 13 10 0
10 -13 0 -13 1 0 10 9 6 10 10 3 10 -6 0 -15 9 -18 21 -6 17 -9 18 -22 8 -13
-11 -12 -14 8 -21 13 -5 19 -12 13 -16 -5 -4 -9 -14 -9 -22 2 -26 -6 -32 -23
-16 -10 8 -21 16 -27 18 -5 2 -9 6 -7 11 3 10 -16 9 -22 -2 -3 -5 -15 -11 -26
-14 -15 -4 -20 0 -20 14 0 12 7 19 20 19 12 0 17 5 14 13 -8 21 23 42 39 28
14 -11 27 -6 27 10 0 5 -6 6 -14 3 -8 -3 -17 0 -22 7 -4 8 -3 10 4 5 7 -4 12
-3 12 3 0 6 14 8 33 6 26 -5 29 -4 12 5 -17 9 -17 10 7 5 15 -3 30 0 33 6 5 7
41 9 101 7 79 -2 92 -5 77 -15z m447 1 c0 -5 -64 -34 -75 -34 -4 0 -3 5 0 10
3 6 1 10 -4 10 -6 0 -11 -7 -11 -16 0 -12 -6 -15 -21 -11 -12 3 -18 3 -15 -1
9 -9 -114 -55 -147 -55 -17 0 -24 -3 -17 -7 9 -5 1 -13 -22 -24 -20 -10 -45
-26 -57 -37 -11 -11 -21 -18 -21 -15 0 2 -13 -8 -29 -22 -16 -15 -50 -43 -76
-62 -46 -34 -121 -98 -157 -133 -10 -10 -23 -15 -28 -12 -6 3 -7 -1 -4 -9 3
-9 2 -16 -4 -16 -5 0 -36 -28 -69 -62 -33 -35 -97 -102 -143 -150 -46 -48 -92
-90 -102 -94 -25 -7 -158 15 -158 27 0 5 7 9 15 9 8 0 15 4 15 10 0 6 -10 5
-25 -2 -21 -10 -29 -9 -43 5 -15 16 -14 17 16 13 17 -2 29 1 26 6 -3 5 -13 7
-21 6 -9 -2 -18 2 -20 8 -2 7 7 10 27 8 25 -3 28 -1 18 10 -7 7 -20 11 -28 8
-8 -3 30 40 84 96 55 56 102 102 105 102 6 0 -32 -42 -88 -97 -25 -23 -42 -45
-39 -48 9 -9 138 128 138 146 0 22 26 31 49 17 15 -9 22 -8 35 4 13 14 13 17
1 22 -8 3 -17 1 -20 -4 -9 -15 -27 -12 -22 3 2 6 8 12 14 12 15 0 43 32 35 40
-4 5 1 5 11 2 11 -4 17 -1 17 8 0 14 57 63 67 57 3 -2 11 7 17 20 7 13 19 22
29 20 27 -5 20 7 -10 19 -33 12 -38 12 -38 0 0 -5 -13 -21 -30 -35 -23 -20
-32 -23 -43 -14 -12 10 -11 14 4 25 10 7 27 13 38 13 19 0 19 0 0 19 -11 11
-21 14 -23 7 -2 -6 -15 -19 -28 -29 -20 -16 -21 -20 -8 -33 18 -19 11 -36 -24
-57 -26 -15 -30 -15 -42 -1 -11 14 -10 15 7 12 13 -2 20 3 22 20 2 12 8 22 13
22 6 0 8 4 5 8 -2 4 11 28 31 52 19 25 38 52 43 60 6 11 11 12 22 2 8 -6 19
-8 23 -4 5 4 5 -2 1 -12 -6 -16 -4 -17 10 -5 10 8 12 15 5 17 -22 7 -11 24 12
17 12 -3 31 -8 42 -10 11 -2 22 -4 25 -4 2 -1 -7 -9 -20 -18 -14 -10 -28 -17
-32 -15 -5 1 -8 -1 -8 -5 0 -12 49 -32 52 -22 2 5 32 27 68 48 57 35 67 38 81
25 9 -8 19 -11 22 -7 12 11 8 21 -10 25 -16 3 -15 6 5 16 19 11 22 10 22 -3 0
-9 4 -14 10 -10 5 3 7 12 4 19 -6 15 30 32 56 27 8 -2 12 0 8 5 -5 4 1 14 12
21 24 17 83 35 76 24 -3 -4 5 -8 17 -8 18 -2 19 0 7 8 -11 8 -7 9 17 7 18 -3
30 -1 27 4 -3 4 58 8 135 8 78 0 141 -2 141 -6z m3593 -34 c-3 -11 -7 -20 -9
-20 -2 0 -4 9 -4 20 0 11 4 20 9 20 5 0 7 -9 4 -20z m24 -12 c-3 -7 -5 -2 -5
12 0 14 2 19 5 13 2 -7 2 -19 0 -25z m62 14 c13 10 14 10 4 -2 -19 -21 -49
-19 -50 2 -2 16 0 17 14 3 12 -13 18 -13 32 -3z m134 -2 c-3 -11 -7 -20 -9
-20 -2 0 -4 9 -4 20 0 11 4 20 9 20 5 0 7 -9 4 -20z m24 -17 c-3 -10 -5 -4 -5
12 0 17 2 24 5 18 2 -7 2 -21 0 -30z m-377 18 c0 -5 -7 -12 -16 -15 -14 -5
-15 -4 -4 9 14 17 20 19 20 6z m53 -11 c3 -11 1 -18 -4 -14 -5 3 -9 12 -9 20
0 20 7 17 13 -6z m397 -5 c0 -8 -4 -15 -10 -15 -5 0 -7 7 -4 15 4 8 8 15 10
15 2 0 4 -7 4 -15z m-3105 -75 c-9 -28 -29 -25 -21 3 3 12 6 29 6 37 1 12 3
11 11 -3 6 -9 7 -26 4 -37z m-1595 -11 c0 -6 -4 -7 -10 -4 -5 3 -10 11 -10 16
0 6 5 7 10 4 6 -3 10 -11 10 -16z m820 6 c0 -3 -33 -53 -73 -113 -41 -59 -77
-114 -80 -122 -8 -22 -44 22 -57 68 -18 70 -3 109 51 138 46 23 159 44 159 29z
m3483 -1 c-7 -3 -10 -11 -7 -19 3 -7 1 -16 -5 -20 -7 -4 -11 4 -11 19 0 18 5
26 18 25 9 0 12 -3 5 -5z m61 -27 c3 4 6 1 6 -5 0 -15 -6 -15 -31 -2 -10 6
-19 18 -19 28 1 14 4 14 19 -5 10 -12 21 -19 25 -16z m98 -1 c7 4 8 2 4 -5
-10 -15 -26 -4 -25 17 1 15 2 15 6 -1 2 -9 9 -14 15 -11z m-64 -17 c-3 -8 -7
-3 -11 10 -4 17 -3 21 5 13 5 -5 8 -16 6 -23z m228 19 c4 -7 4 -10 -1 -6 -4 4
-16 3 -26 -2 -12 -7 -20 -6 -25 2 -4 6 -3 8 2 5 6 -3 16 -2 24 4 19 11 18 11
26 -3z m-5929 -30 c-3 -8 -6 -5 -6 6 -1 11 2 17 5 13 3 -3 4 -12 1 -19z m2339
-5 c-10 -10 -19 5 -10 18 6 11 8 11 12 0 2 -7 1 -15 -2 -18z m672 -16 c23 -21
32 -21 32 -2 0 8 7 15 16 15 8 0 12 -5 9 -10 -4 -6 3 -6 18 1 19 9 32 8 58 -5
46 -21 189 -53 274 -61 163 -14 281 -27 298 -32 23 -6 79 -82 70 -96 -3 -5 -1
-7 5 -3 6 3 16 -7 24 -24 7 -16 16 -30 20 -30 5 0 8 -5 8 -11 0 -6 7 -17 15
-25 20 -20 20 -40 0 -24 -13 11 -14 10 -9 -4 4 -10 13 -15 21 -12 16 7 77
-119 68 -141 -2 -8 -1 -12 4 -8 14 8 24 -50 16 -87 -8 -37 -46 -93 -74 -108
-13 -7 -48 -3 -117 12 -77 16 -101 18 -116 9 -10 -6 -24 -9 -31 -5 -7 4 -9 4
-5 -1 14 -15 -75 -70 -118 -73 -44 -2 -137 24 -202 57 -44 22 -202 168 -202
186 0 10 -35 45 -45 45 -3 0 -6 -30 -6 -67 -1 -38 -3 -59 -6 -48 -9 43 -56
182 -74 222 -10 24 -19 52 -19 63 0 11 -9 34 -20 52 -11 18 -20 46 -20 61 0
19 -4 26 -12 21 -8 -5 -9 -2 -5 9 3 10 2 17 -3 17 -5 0 -12 10 -16 22 -3 12
-12 27 -18 34 -6 6 -21 23 -33 37 l-22 26 22 5 c50 10 177 -1 195 -17z m2612
-39 c0 -23 -3 -29 -9 -19 -8 12 -4 51 5 51 2 0 4 -15 4 -32z m40 22 c0 -5 -2
-10 -4 -10 -3 0 -8 5 -11 10 -3 6 -1 10 4 10 6 0 11 -4 11 -10z m27 -37 c-3
-10 -5 -2 -5 17 0 19 2 27 5 18 2 -10 2 -26 0 -35z m118 -13 c8 0 16 12 18 28
4 25 4 25 3 -3 -1 -23 -6 -30 -21 -30 -15 0 -21 8 -22 33 -3 32 -3 32 3 2 3
-16 11 -30 19 -30z m42 13 c-3 -10 -5 -2 -5 17 0 19 2 27 5 18 2 -10 2 -26 0
-35z m60 0 c-3 -10 -5 -2 -5 17 0 19 2 27 5 18 2 -10 2 -26 0 -35z m30 0 c-3
-10 -5 -2 -5 17 0 19 2 27 5 18 2 -10 2 -26 0 -35z m-57 22 c0 -8 -4 -15 -10
-15 -5 0 -7 7 -4 15 4 8 8 15 10 15 2 0 4 -7 4 -15z m77 -17 c-3 -8 -6 -5 -6
6 -1 11 2 17 5 13 3 -3 4 -12 1 -19z m-4797 -28 c0 -5 -5 -10 -11 -10 -5 0 -7
5 -4 10 3 6 8 10 11 10 2 0 4 -4 4 -10z m-24 -69 c-4 -6 -13 -11 -19 -10 -9 0
-9 2 0 5 7 3 9 13 6 22 -5 13 -3 14 7 5 7 -6 9 -16 6 -22z m2802 -7 c7 -2 10
-10 7 -16 -4 -7 -1 -6 7 3 14 17 42 14 32 -3 -4 -6 -3 -8 2 -5 14 8 90 -37 86
-52 -1 -7 2 -10 8 -6 13 8 52 -19 42 -30 -4 -5 -2 -5 5 -1 10 5 77 -26 93 -44
3 -3 12 -9 21 -15 95 -58 147 -112 224 -234 6 -9 18 -28 28 -43 11 -15 15 -33
11 -39 -4 -8 -3 -9 4 -5 16 10 55 -70 47 -97 -4 -14 -3 -17 2 -9 7 9 14 2 26
-23 21 -44 21 -51 2 -35 -10 8 -15 9 -15 2 0 -6 7 -15 15 -20 9 -4 18 -26 20
-48 4 -31 3 -34 -4 -14 -5 14 -9 21 -10 15 -1 -5 -28 40 -62 100 -89 162 -124
217 -153 244 -21 20 -26 21 -26 8 0 -10 9 -34 20 -54 11 -21 20 -44 20 -52 0
-7 13 -52 29 -100 24 -73 28 -97 24 -158 l-5 -72 -42 30 c-22 17 -40 33 -40
37 1 4 -6 18 -16 32 -9 14 -32 59 -51 100 -18 41 -37 77 -42 78 -4 2 -16 20
-26 40 -11 21 -32 53 -48 71 -43 53 -124 145 -137 156 -7 6 -15 19 -19 29 -5
12 11 2 40 -25 65 -59 115 -99 125 -99 4 0 8 8 8 18 0 21 -61 87 -133 145 -39
32 -50 37 -62 27 -12 -10 -15 -10 -15 0 0 6 -19 40 -42 75 -33 48 -46 61 -55
53 -8 -6 -10 -15 -5 -22 11 -13 23 -46 18 -46 -2 0 -13 15 -24 33 -11 19 -27
46 -37 61 l-18 27 54 -6 c30 -4 60 -8 67 -11z m216 -19 c19 -29 6 -33 -34 -10
-23 13 -23 14 -5 16 11 1 4 5 -15 9 l-35 7 36 2 c29 1 40 -4 53 -24z m-1887
-58 c-37 -34 -67 -65 -67 -70 0 -4 44 15 98 42 53 26 122 54 152 60 66 14 70
10 101 -92 27 -92 31 -296 6 -344 -19 -37 -44 -53 -81 -53 -20 0 -34 14 -68
63 -93 136 -225 297 -245 297 -16 0 -16 0 -2 -56 18 -68 1 -76 -58 -27 -26 21
-63 50 -82 63 l-34 23 29 25 c42 35 261 129 304 131 8 1 -15 -27 -53 -62z
m-405 29 c25 -8 49 -12 52 -9 3 4 6 3 6 -1 0 -4 -24 -18 -54 -31 -97 -43 -165
-151 -167 -269 -1 -36 -5 -66 -10 -66 -22 0 -58 25 -68 47 -7 14 -16 21 -23
17 -7 -4 -8 -3 -4 5 4 6 2 27 -4 46 -17 51 -20 95 -11 135 5 19 9 27 10 18 2
-27 19 -22 35 10 18 34 62 76 101 96 37 20 76 20 137 2z m3995 -58 c-3 -7 -5
-2 -5 12 0 14 2 19 5 13 2 -7 2 -19 0 -25z m-93 -20 c-9 -14 -23 2 -17 18 4
12 8 13 14 3 4 -7 5 -17 3 -21z m-5897 0 c-3 -8 -6 -5 -6 6 -1 11 2 17 5 13 3
-3 4 -12 1 -19z m5860 0 c-3 -8 -6 -5 -6 6 -1 11 2 17 5 13 3 -3 4 -12 1 -19z
m88 12 c3 -5 1 -10 -4 -10 -6 0 -11 5 -11 10 0 6 2 10 4 10 3 0 8 -4 11 -10z
m-5708 -47 c-3 -10 -5 -4 -5 12 0 17 2 24 5 18 2 -7 2 -21 0 -30z m-20 5 c-3
-8 -6 -5 -6 6 -1 11 2 17 5 13 3 -3 4 -12 1 -19z m1249 -132 c-17 -35 -35 -60
-40 -56 -5 5 1 22 13 38 11 17 21 34 21 38 0 6 30 44 35 44 1 0 -12 -29 -29
-64z m-919 22 c-3 -7 -5 -2 -5 12 0 14 2 19 5 13 2 -7 2 -19 0 -25z m-289 -3
c-3 -3 -9 2 -12 12 -6 14 -5 15 5 6 7 -7 10 -15 7 -18z m49 3 c-3 -8 -6 -5 -6
6 -1 11 2 17 5 13 3 -3 4 -12 1 -19z m1236 -138 c-3 -12 -8 -19 -11 -16 -5 6
5 36 12 36 2 0 2 -9 -1 -20z m2 -40 c-3 -5 -11 -10 -16 -10 -6 0 -7 5 -4 10 3
6 11 10 16 10 6 0 7 -4 4 -10z m600 -49 c-22 -44 -26 -38 -7 10 9 23 18 37 20
31 2 -6 -4 -24 -13 -41z m-530 -27 c17 -15 21 -21 9 -16 -14 7 -25 7 -35 0
-11 -8 -11 -9 3 -5 9 3 18 1 20 -5 2 -6 16 -10 32 -10 19 0 26 -5 22 -15 -3
-8 -2 -11 4 -8 5 3 19 -2 32 -12 40 -31 138 -132 138 -142 0 -5 -7 -16 -15
-25 -8 -8 -15 -20 -15 -26 0 -6 -7 -13 -15 -16 -8 -4 -15 -14 -15 -24 0 -11
-5 -22 -11 -26 -6 -3 -8 -15 -6 -26 4 -13 1 -18 -8 -15 -8 4 -15 -5 -19 -25
-3 -16 -17 -43 -31 -60 -26 -31 -32 -48 -15 -48 6 0 10 -5 10 -11 0 -5 -5 -7
-11 -4 -6 4 -13 -2 -16 -14 -3 -12 -9 -21 -14 -21 -5 0 -9 -13 -9 -30 0 -16
-4 -30 -10 -30 -5 0 -10 5 -10 10 0 6 -5 10 -10 10 -7 0 -7 -6 0 -19 14 -27
13 -41 -4 -35 -8 3 -17 1 -21 -5 -3 -6 -1 -11 5 -11 7 0 8 -6 1 -19 -6 -10 -8
-21 -5 -24 3 -3 -3 -12 -15 -19 -27 -16 -26 -32 0 -71 54 -80 135 -116 190
-86 13 7 26 13 29 12 3 -1 6 16 7 38 2 21 -1 39 -6 39 -5 0 2 22 15 50 13 27
24 53 24 57 0 24 22 83 30 78 4 -3 6 5 2 17 -3 14 -2 19 6 14 11 -6 17 12 13
37 0 4 3 7 9 7 6 0 10 10 10 23 0 16 3 18 9 9 7 -11 9 -11 14 2 4 9 5 22 3 29
-1 6 -1 9 1 4 11 -18 21 6 13 28 -7 17 -6 24 2 22 6 -1 13 14 15 33 7 52 14
61 38 44 14 -11 16 -17 8 -22 -8 -5 -9 -13 -3 -22 8 -13 10 -12 10 3 0 9 2 17
5 17 6 0 104 -79 143 -115 15 -14 30 -25 34 -25 5 0 8 -5 8 -12 0 -6 -9 -3
-20 7 -11 10 -20 13 -20 8 0 -10 23 -25 42 -27 3 -1 26 -19 50 -41 23 -22 66
-57 93 -77 28 -20 59 -46 70 -59 l20 -22 -84 7 c-46 4 -96 12 -110 18 -14 5
-26 8 -27 6 0 -2 -9 4 -19 12 -24 20 -81 39 -94 30 -12 -7 28 -47 91 -95 21
-15 35 -32 31 -38 -3 -6 -1 -7 5 -3 12 7 115 -58 106 -67 -3 -3 0 -8 7 -13 8
-4 10 -3 5 4 -10 16 3 14 34 -3 17 -10 20 -14 9 -15 -9 0 -24 -9 -34 -20 -11
-12 -25 -18 -34 -15 -8 3 -12 3 -9 -1 7 -7 -40 -42 -95 -70 -17 -10 -47 -31
-65 -48 -18 -17 -36 -31 -40 -31 -30 -3 -52 -18 -47 -34 4 -13 -8 -30 -41 -60
-44 -39 -73 -54 -58 -29 4 7 3 8 -5 4 -6 -4 -8 -12 -5 -18 7 -10 -61 -80 -69
-72 -3 3 -8 0 -13 -7 -4 -8 -3 -10 4 -5 7 4 12 3 12 -3 0 -5 -4 -12 -9 -16 -6
-3 -9 -14 -8 -25 1 -10 4 -17 8 -14 4 2 10 0 14 -6 3 -5 1 -10 -4 -10 -6 0
-11 -7 -11 -15 0 -8 -4 -15 -8 -15 -10 0 -32 -44 -32 -63 0 -7 15 -18 33 -25
18 -6 48 -24 67 -38 19 -15 26 -23 15 -19 -29 10 -340 6 -392 -5 -60 -14 -103
-37 -103 -55 0 -12 8 -14 40 -9 28 5 40 3 40 -5 0 -7 4 -9 10 -6 5 3 44 3 87
-1 l77 -7 -39 -14 c-22 -7 -58 -22 -80 -32 -22 -10 -87 -40 -145 -66 -58 -27
-143 -68 -190 -92 -46 -23 -88 -43 -92 -43 -12 0 -10 18 6 53 24 58 55 142 61
168 5 21 2 27 -14 32 -11 3 -25 -1 -31 -8 -6 -8 -26 -17 -43 -20 -18 -4 -67
-24 -109 -45 l-78 -37 -23 31 c-13 17 -43 67 -68 111 -39 69 -56 106 -83 175
-3 8 -10 22 -15 30 -18 31 -45 100 -93 235 -70 199 -72 206 -56 216 10 7 9 9
-4 9 -21 0 -32 59 -24 142 3 35 8 98 12 140 6 76 7 78 30 72 15 -4 24 -2 24 5
0 6 -9 11 -20 11 -24 0 -26 22 -5 40 8 7 13 16 10 20 -7 11 5 41 14 36 3 -2 7
7 8 21 0 14 7 29 13 33 7 4 9 13 5 20 -5 9 -4 11 3 6 7 -4 12 -2 12 3 0 6 8
11 18 11 11 0 24 12 31 26 9 20 9 25 -1 22 -7 -3 -13 -11 -13 -18 0 -7 -6 -15
-14 -18 -16 -5 -8 12 21 44 13 15 27 20 41 17 17 -5 20 -3 10 7 -9 10 -5 18
16 36 60 50 196 107 175 72 -4 -7 -3 -8 4 -4 6 4 9 12 6 20 -3 8 22 23 76 44
45 18 86 32 91 32 17 0 41 28 27 32 -6 2 30 14 80 26 50 12 99 19 108 15 10
-4 15 -2 11 4 -6 10 92 38 101 29 2 -3 11 1 18 9 18 17 56 5 99 -31z m2195
-18 c0 -7 20 -21 45 -30 27 -11 42 -22 39 -28 -4 -6 -2 -8 4 -4 14 9 84 -33
75 -47 -3 -5 -1 -7 5 -3 13 8 84 -33 77 -44 -3 -4 3 -7 13 -6 9 0 16 -5 14
-12 -1 -8 2 -11 8 -7 6 4 26 -9 45 -29 18 -20 38 -36 44 -36 6 0 37 -24 68
-54 71 -66 100 -59 34 8 -24 24 -39 46 -34 48 4 3 3 4 -3 2 -15 -3 -55 42 -46
52 4 4 1 4 -5 0 -15 -8 -95 53 -87 66 3 5 0 8 -7 7 -20 -4 -61 20 -54 31 3 6
0 7 -8 5 -7 -3 -24 3 -37 15 -13 11 -28 20 -33 20 -6 0 -8 2 -5 5 6 6 165 -51
193 -69 11 -7 38 -19 60 -26 22 -7 72 -29 110 -50 39 -21 106 -57 150 -80 44
-23 84 -45 89 -48 5 -3 1 -9 -10 -14 -15 -7 -14 -8 6 -4 28 6 171 -77 167 -97
-1 -7 4 -11 11 -10 6 2 12 -4 12 -12 0 -8 6 -15 13 -15 8 0 45 -33 83 -73 109
-115 134 -146 128 -165 -4 -12 -3 -14 3 -4 7 10 29 -12 81 -82 73 -97 86 -119
55 -95 -16 11 -16 11 -5 -1 7 -8 18 -15 25 -15 7 0 11 -8 11 -17 -1 -10 3 -16
10 -15 6 1 10 -4 8 -11 -1 -8 2 -11 7 -8 15 9 83 -118 75 -140 -5 -15 -4 -16
4 -5 8 11 12 6 17 -25 4 -21 16 -68 26 -104 11 -36 21 -78 24 -95 2 -16 9 -50
14 -75 16 -72 12 -215 -9 -354 -24 -156 -50 -248 -92 -319 -25 -45 -42 -60
-97 -90 -65 -35 -88 -41 -290 -72 -128 -20 -132 -20 -95 13 18 15 37 37 44 50
19 38 68 181 64 187 -2 3 1 1 7 -4 24 -20 48 5 99 104 l53 104 1 115 c1 64 -2
116 -7 116 -5 0 -16 -18 -25 -40 -16 -38 -41 -59 -28 -23 18 45 27 188 24 359
-3 184 -10 233 -29 203 -5 -8 -9 -24 -9 -37 0 -15 -4 -21 -12 -16 -7 4 -8 3
-4 -4 13 -22 -86 -242 -151 -334 -18 -26 -33 -52 -33 -58 0 -5 -4 -10 -9 -10
-4 0 -15 -17 -24 -37 l-15 -38 5 35 c2 19 7 42 10 50 3 8 6 31 8 50 8 112 30
270 38 270 5 0 -7 18 -27 40 -37 41 -103 149 -98 163 1 4 -2 7 -6 7 -11 0 -53
75 -47 84 3 3 2 4 -1 1 -4 -2 -35 37 -69 88 -34 50 -76 107 -93 126 -32 33
-44 69 -19 55 10 -6 10 -4 0 7 -7 7 -13 27 -13 45 0 22 -5 33 -18 36 -17 5
-18 -2 -14 -85 4 -70 9 -94 23 -108 11 -11 19 -24 19 -29 0 -6 9 -30 20 -52
11 -23 18 -51 14 -62 -4 -15 -3 -17 4 -7 11 15 41 -57 67 -157 16 -61 11 -181
-10 -255 -15 -50 -84 -190 -97 -195 -5 -2 -8 -9 -8 -15 0 -7 -24 -38 -53 -69
-29 -32 -51 -58 -49 -58 8 0 -64 -85 -113 -135 -126 -125 -195 -186 -205 -180
-6 4 -9 2 -8 -3 3 -9 -73 -77 -190 -169 l-52 -41 -145 -7 c-191 -10 -588 7
-732 31 -54 8 -55 -3 -8 -59 20 -23 33 -47 30 -55 -2 -7 -1 -11 4 -8 5 3 31
-20 57 -52 27 -31 59 -65 71 -75 13 -10 23 -24 23 -32 0 -7 3 -15 8 -17 4 -1
22 -20 40 -42 18 -21 54 -56 78 -77 25 -21 43 -39 39 -39 -3 0 -34 13 -70 29
-68 31 -158 99 -149 113 3 4 -2 8 -11 8 -8 0 -18 7 -21 15 -4 8 -13 15 -21 15
-8 0 -11 5 -8 11 4 6 1 9 -6 8 -14 -3 -58 26 -173 111 -34 25 -100 70 -148
100 -48 30 -92 64 -98 75 -8 14 -9 15 -6 3 7 -23 -1 -23 -40 1 -33 20 -84 80
-84 98 0 6 -7 16 -15 23 -9 7 -14 19 -11 26 3 7 1 16 -5 19 -5 4 -7 10 -4 15
3 5 15 0 26 -11 11 -11 17 -25 13 -31 -5 -7 -3 -8 6 -3 7 4 15 3 19 -2 15 -23
122 -94 136 -91 13 2 11 7 -8 28 -38 41 -114 154 -145 217 -28 55 -30 63 -22
128 8 75 77 234 94 218 5 -4 6 0 3 10 -8 20 15 61 27 50 4 -4 4 0 1 9 -6 16
21 80 56 129 10 14 21 37 24 52 4 15 11 27 15 27 4 0 11 11 14 25 4 14 12 25
19 25 8 0 28 20 46 45 18 25 36 43 40 41 4 -3 8 1 8 8 0 7 26 47 59 89 49 64
61 74 74 64 13 -10 13 -10 2 5 -11 14 -10 20 9 42 12 14 26 23 30 20 5 -3 6 3
2 12 -5 14 -3 16 11 11 10 -4 15 -3 11 3 -8 13 145 171 158 163 5 -3 7 -1 4 4
-9 15 13 30 40 27 12 0 20 2 18 7 -3 4 20 32 52 61 31 29 65 63 77 76 11 12
24 22 29 22 6 0 2 -9 -8 -20 -10 -11 -16 -23 -12 -26 6 -6 32 36 29 48 -2 8
153 141 163 139 4 -1 13 8 19 21 7 13 20 22 29 22 9 -1 14 2 12 7 -6 9 96 89
114 89 7 0 9 5 6 10 -3 6 -2 10 4 10 5 0 39 23 75 50 68 52 88 62 65 33 -13
-16 -12 -17 3 -5 10 8 17 17 16 20 -1 4 2 15 6 25 10 20 36 23 36 3z m-3573
-58 c-3 -8 -6 -5 -6 6 -1 11 2 17 5 13 3 -3 4 -12 1 -19z m330 0 c-3 -8 -6 -5
-6 6 -1 11 2 17 5 13 3 -3 4 -12 1 -19z m1871 -230 c-3 -33 -5 -35 -20 -24
-16 12 -16 20 -6 77 l12 64 8 -40 c5 -22 8 -57 6 -77z m3489 40 c-3 -7 -5 -2
-5 12 0 14 2 19 5 13 2 -7 2 -19 0 -25z m30 0 c-3 -7 -5 -2 -5 12 0 14 2 19 5
13 2 -7 2 -19 0 -25z m30 0 c-3 -8 -6 -5 -6 6 -1 11 2 17 5 13 3 -3 4 -12 1
-19z m-3433 -135 c17 -3 37 -11 45 -17 8 -6 12 -6 9 -1 -4 6 11 9 40 6 42 -3
45 -4 22 -13 -35 -13 -106 -4 -160 22 -32 15 -37 20 -16 15 15 -3 42 -9 60
-12z m-3019 -12 c-6 -5 -28 -12 -50 -15 l-40 -6 35 14 c41 17 68 20 55 7z m14
-43 c66 -105 167 -289 228 -413 40 -82 90 -181 111 -220 91 -169 242 -565 242
-633 0 -35 18 -109 31 -127 3 -5 10 -26 14 -45 4 -19 20 -64 36 -100 47 -107
102 -363 97 -448 l-3 -54 -60 -25 c-33 -14 -79 -26 -103 -27 l-43 -1 -29 85
c-16 47 -49 148 -73 225 -68 212 -101 295 -189 485 -22 47 -56 121 -75 164
-18 44 -49 105 -68 137 -19 31 -35 60 -35 63 0 4 -22 53 -48 109 -27 56 -61
134 -77 172 -29 72 -190 402 -205 420 -5 6 -16 33 -25 60 l-17 49 28 23 c32
26 216 118 244 122 3 1 12 -9 19 -21z m2706 12 c3 -5 1 -10 -4 -10 -6 0 -11 5
-11 10 0 6 2 10 4 10 3 0 8 -4 11 -10z m495 -15 c7 -8 23 -15 36 -15 37 0 37
-16 -1 -48 -52 -46 -175 -74 -161 -36 4 10 2 13 -7 7 -19 -12 -45 -14 -52 -3
-4 6 -11 8 -16 5 -5 -4 -9 -2 -9 2 0 12 43 38 58 35 7 -2 11 2 10 8 -3 11 86
58 113 59 9 1 22 -6 29 -14z m-3375 -5 c-3 -5 -11 -10 -16 -10 -6 0 -36 -17
-67 -37 -96 -61 -162 -93 -292 -139 -69 -25 -141 -53 -160 -63 -19 -11 -74
-33 -122 -50 -48 -16 -104 -39 -125 -49 -21 -11 -99 -43 -173 -72 -74 -29
-153 -60 -175 -70 -22 -9 -58 -23 -80 -30 -40 -13 -379 -156 -530 -224 l-80
-36 36 33 c20 17 68 45 105 62 38 16 93 44 124 63 30 18 82 46 115 63 33 16
67 33 75 38 26 15 61 29 178 71 62 23 206 81 320 129 114 48 234 98 267 110
33 13 80 32 105 43 24 11 56 25 70 30 20 9 418 145 428 147 2 1 0 -3 -3 -9z
m2937 -6 c24 -12 43 -14 87 -8 31 4 68 8 84 8 15 0 27 4 27 8 0 4 19 8 43 8
l42 0 -40 -24 c-22 -13 -43 -22 -47 -20 -5 3 -8 -2 -8 -11 0 -9 -4 -14 -10
-10 -8 5 15 -87 26 -107 5 -8 -98 31 -113 44 -7 6 -10 14 -7 19 3 5 -1 7 -8 4
-7 -3 -37 17 -65 43 -68 63 -71 77 -11 46z m3585 -106 c-3 -8 -6 -5 -6 6 -1
11 2 17 5 13 3 -3 4 -12 1 -19z m220 -25 c-3 -10 -5 -2 -5 17 0 19 2 27 5 18
2 -10 2 -26 0 -35z m-369 23 c13 17 28 13 29 -9 1 -14 -1 -17 -5 -10 -6 9 -17
10 -39 4 -27 -8 -30 -7 -26 10 4 16 8 17 20 7 9 -7 17 -8 21 -2z m49 -18 c-3
-7 -5 -2 -5 12 0 14 2 19 5 13 2 -7 2 -19 0 -25z m30 -5 c-3 -10 -5 -4 -5 12
0 17 2 24 5 18 2 -7 2 -21 0 -30z m100 5 c-3 -7 -5 -2 -5 12 0 14 2 19 5 13 2
-7 2 -19 0 -25z m-3277 -53 c23 -24 29 -35 18 -35 -17 0 -68 44 -68 60 0 18
15 11 50 -25z m3157 -52 c-3 -10 -5 -4 -5 12 0 17 2 24 5 18 2 -7 2 -21 0 -30z
m-94 7 c-3 -11 -7 -20 -9 -20 -2 0 -4 9 -4 20 0 11 4 20 9 20 5 0 7 -9 4 -20z
m64 -27 c-3 -10 -5 -2 -5 17 0 19 2 27 5 18 2 -10 2 -26 0 -35z m-20 15 c-3
-8 -6 -5 -6 6 -1 11 2 17 5 13 3 -3 4 -12 1 -19z m-3982 -53 c-10 -30 -10 -44
-2 -55 7 -8 2 -7 -10 4 l-22 18 22 39 c12 20 23 37 24 35 1 -1 -4 -20 -12 -41z
m955 -24 c0 -17 -42 -81 -53 -81 -6 0 -7 -3 -4 -6 11 -11 -27 -65 -41 -59 -9
3 -12 0 -9 -9 5 -13 -32 -62 -105 -141 -16 -16 -28 -33 -28 -37 0 -5 -8 -8
-17 -8 -9 0 -13 -3 -10 -6 9 -9 -65 -90 -78 -86 -5 2 -7 0 -3 -4 7 -6 -44 -80
-65 -95 -5 -4 -4 -10 2 -13 13 -9 14 -60 2 -104 -6 -18 -13 -72 -16 -120 -4
-48 -10 -118 -15 -157 -4 -38 -7 -91 -6 -118 1 -39 -2 -47 -16 -47 -10 0 -18
5 -18 10 0 6 -5 10 -10 10 -6 0 -30 9 -53 21 -23 11 -73 31 -112 44 -38 13
-65 24 -58 25 7 0 10 7 6 17 -4 11 -3 14 5 9 8 -4 10 -2 6 7 -3 8 3 39 14 68
10 30 35 104 56 164 21 61 45 117 52 126 8 8 14 21 14 28 0 7 4 9 10 6 5 -3 7
0 5 8 -3 7 8 25 25 40 32 29 36 28 18 -6 -6 -12 12 1 41 28 29 28 56 49 60 48
4 -1 6 9 3 23 -4 24 -5 24 -25 7 -19 -17 -19 -16 2 14 12 18 26 35 32 39 5 3
7 14 4 25 -5 14 3 29 31 53 21 19 44 32 51 29 9 -3 11 0 7 10 -6 17 122 131
137 121 5 -3 8 0 7 8 -2 8 4 12 15 10 9 -2 16 2 15 9 -2 6 17 27 42 45 25 19
50 38 55 44 13 12 25 12 25 1z m-1090 -11 c0 -13 60 -40 75 -33 7 2 18 -3 25
-12 11 -13 9 -15 -9 -15 -12 0 -34 6 -49 14 -32 17 -70 56 -54 56 7 0 12 -5
12 -10z m4163 -10 c-3 -11 -7 -20 -9 -20 -2 0 -4 9 -4 20 0 11 4 20 9 20 5 0
7 -9 4 -20z m24 -12 c-3 -7 -5 -2 -5 12 0 14 2 19 5 13 2 -7 2 -19 0 -25z m30
0 c-3 -7 -5 -2 -5 12 0 14 2 19 5 13 2 -7 2 -19 0 -25z m70 0 c-3 -7 -5 -2 -5
12 0 14 2 19 5 13 2 -7 2 -19 0 -25z m-157 12 c12 -8 11 -10 -7 -10 -13 0 -23
5 -23 10 0 13 11 13 30 0z m127 -12 c-3 -8 -6 -5 -6 6 -1 11 2 17 5 13 3 -3 4
-12 1 -19z m110 0 c-3 -8 -6 -5 -6 6 -1 11 2 17 5 13 3 -3 4 -12 1 -19z m110
0 c-3 -8 -6 -5 -6 6 -1 11 2 17 5 13 3 -3 4 -12 1 -19z m-5790 -20 c-3 -8 -6
-5 -6 6 -1 11 2 17 5 13 3 -3 4 -12 1 -19z m5723 18 c0 -2 -7 -7 -16 -10 -8
-3 -12 -2 -9 4 6 10 25 14 25 6z m-3614 -106 c-20 -22 -36 -45 -36 -51 0 -5
-4 -7 -10 -4 -5 3 -10 -1 -10 -10 0 -9 -25 -43 -55 -75 -33 -34 -58 -69 -61
-86 -3 -24 -2 -26 6 -11 6 9 16 17 21 17 14 0 -63 -89 -76 -90 -6 0 -22 -17
-35 -39 -14 -22 -31 -36 -38 -34 -8 4 -9 9 -3 17 7 8 4 12 -9 12 -10 0 -16 -5
-12 -11 8 -13 -30 16 -44 34 -8 10 -21 12 -43 8 -24 -5 -30 -4 -25 6 19 32 39
47 58 42 12 -3 15 -2 9 1 -20 9 -15 27 4 20 10 -4 15 -4 11 -1 -6 6 2 17 50
68 9 10 22 15 30 12 10 -3 12 0 8 10 -3 10 3 17 19 21 14 3 23 9 21 13 -3 5
237 167 253 170 2 1 -13 -17 -33 -39z m3421 -107 c-3 -10 -5 -2 -5 17 0 19 2
27 5 18 2 -10 2 -26 0 -35z m133 13 c0 -18 -5 -23 -17 -21 -10 2 -22 4 -26 4
-4 1 -2 7 5 15 9 10 15 11 20 2 5 -7 8 -5 8 7 0 9 2 17 5 17 3 0 5 -11 5 -24z
m-280 10 c0 -11 -19 -15 -25 -6 -3 5 1 10 9 10 9 0 16 -2 16 -4z m40 -22 c0
-20 -7 -17 -20 6 -9 16 -8 18 5 14 8 -4 15 -12 15 -20z m158 0 c2 -1 -4 -4
-12 -7 -8 -3 -16 2 -19 14 -5 17 -3 18 11 7 9 -7 18 -13 20 -14z m-3798 -59
c-7 -8 -18 -15 -24 -15 -6 0 -2 7 8 15 25 19 32 19 16 0z m3647 -52 c-3 -10
-5 -2 -5 17 0 19 2 27 5 18 2 -10 2 -26 0 -35z m330 0 c-3 -10 -5 -2 -5 17 0
19 2 27 5 18 2 -10 2 -26 0 -35z m-716 7 c6 -16 15 -30 20 -30 5 0 9 -7 9 -15
0 -9 6 -26 14 -38 23 -34 55 -169 54 -222 -1 -55 -8 -47 -38 41 -12 35 -15 52
-7 48 7 -4 5 1 -5 12 -9 10 -19 37 -23 59 -4 22 -16 67 -26 99 -10 33 -19 63
-19 68 0 18 12 6 21 -22z m359 0 c0 -11 -2 -20 -4 -20 -2 0 -6 9 -9 20 -3 11
-1 20 4 20 5 0 9 -9 9 -20z m47 -12 c-3 -7 -5 -2 -5 12 0 14 2 19 5 13 2 -7 2
-19 0 -25z m26 12 c-3 -11 -7 -20 -9 -20 -2 0 -4 9 -4 20 0 11 4 20 9 20 5 0
7 -9 4 -20z m24 -12 c-3 -7 -5 -2 -5 12 0 14 2 19 5 13 2 -7 2 -19 0 -25z m51
7 c-3 -3 -9 2 -12 12 -6 14 -5 15 5 6 7 -7 10 -15 7 -18z m47 6 c3 -5 1 -12
-5 -16 -5 -3 -10 1 -10 9 0 18 6 21 15 7z m-7351 -79 c24 -37 93 -167 151
-287 59 -121 120 -245 136 -276 32 -62 81 -189 109 -284 10 -33 30 -94 45
-135 15 -41 31 -91 36 -110 6 -19 17 -52 26 -73 20 -47 21 -46 -97 -82 -47
-15 -121 -40 -165 -57 -44 -17 -91 -34 -105 -38 -14 -4 -57 -22 -96 -40 -57
-26 -70 -37 -67 -51 4 -14 12 -17 32 -13 27 6 95 32 171 67 25 11 86 33 135
48 50 16 106 39 125 51 19 12 42 23 50 24 8 1 23 5 33 9 12 5 17 2 17 -9 0
-20 -35 -56 -56 -56 -18 0 -238 -74 -384 -129 -80 -30 -105 -44 -105 -58 0
-13 7 -17 25 -16 53 4 79 12 156 48 43 20 129 53 189 72 61 19 125 46 143 60
37 28 44 27 36 -3 -3 -12 -20 -26 -42 -33 -230 -82 -430 -159 -459 -177 -23
-14 -22 -54 2 -54 7 0 56 21 110 46 85 40 344 134 369 134 23 0 -52 -49 -122
-80 -180 -78 -358 -150 -374 -150 -12 0 -19 12 -24 48 -4 26 -16 76 -26 112
-21 67 -103 250 -116 260 -4 3 -23 40 -42 83 -18 43 -58 121 -87 173 -30 51
-69 132 -88 179 -19 48 -78 173 -130 280 -52 107 -95 198 -95 203 0 11 109
118 116 114 3 -2 7 -2 9 0 2 2 -5 5 -17 5 -21 2 -93 -42 -117 -71 -12 -14 -15
-13 -33 7 l-19 22 5 -30 6 -30 -118 -39 c-151 -49 -291 -113 -642 -290 -232
-117 -286 -148 -290 -168 -5 -20 -7 -21 -13 -5 -8 20 28 59 78 84 17 9 44 28
61 42 38 32 252 172 342 223 36 21 83 53 106 72 51 41 317 170 516 249 36 14
92 38 124 52 82 36 256 95 256 86 0 -4 -11 -14 -25 -21 -14 -7 -25 -17 -25
-22 0 -11 24 -10 36 2 17 17 158 99 171 99 6 1 32 -30 57 -67z m7290 5 c-3 -8
2 -20 11 -27 8 -7 15 -18 15 -24 0 -6 -7 -3 -14 7 -14 18 -14 18 -19 0 -3 -10
-4 -4 -4 12 1 30 5 45 12 45 3 0 2 -6 -1 -13z m73 -44 c-3 -10 -5 -2 -5 17 0
19 2 27 5 18 2 -10 2 -26 0 -35z m40 32 c0 -8 -4 -12 -9 -9 -4 3 -8 9 -8 15 0
5 4 9 8 9 5 0 9 -7 9 -15z m108 -25 c10 -11 14 -20 9 -20 -5 0 -15 9 -22 20
-7 11 -11 20 -9 20 2 0 12 -9 22 -20z m-278 -12 c-3 -8 -6 -5 -6 6 -1 11 2 17
5 13 3 -3 4 -12 1 -19z m109 -195 c-10 -10 -46 -11 -40 -1 3 4 15 8 26 8 12 0
18 -3 14 -7z m47 -24 c6 -23 -9 -16 -23 11 -8 16 -7 18 4 14 8 -3 16 -14 19
-25z m64 -1 c-3 -7 -5 -2 -5 12 0 14 2 19 5 13 2 -7 2 -19 0 -25z m44 2 c-3
-3 -9 -9 -13 -14 -5 -5 -8 3 -8 18 0 22 2 25 14 14 8 -7 11 -15 7 -18z m-491
-100 c6 -22 8 -45 5 -50 -3 -6 1 -7 10 -4 11 5 14 2 9 -10 -3 -9 -1 -16 6 -16
7 0 9 -8 5 -20 -5 -14 -2 -20 10 -20 13 0 15 -6 10 -32 -7 -33 -26 -79 -44
-108 -5 -8 -14 -26 -20 -40 -9 -20 -11 -5 -7 72 2 54 1 100 -4 103 -5 3 -8 25
-7 49 1 24 5 42 8 40 3 -2 6 10 5 26 -1 17 -4 30 -8 30 -5 0 -8 5 -8 10 0 26
20 6 30 -30z m337 -7 c-3 -10 -5 -2 -5 17 0 19 2 27 5 18 2 -10 2 -26 0 -35z
m-40 -20 c-3 -10 -5 -2 -5 17 0 19 2 27 5 18 2 -10 2 -26 0 -35z m20 15 c-3
-7 -5 -2 -5 12 0 14 2 19 5 13 2 -7 2 -19 0 -25z m70 0 c-3 -7 -5 -2 -5 12 0
14 2 19 5 13 2 -7 2 -19 0 -25z m90 0 c-3 -7 -5 -2 -5 12 0 14 2 19 5 13 2 -7
2 -19 0 -25z m-70 -10 c-3 -8 -6 -5 -6 6 -1 11 2 17 5 13 3 -3 4 -12 1 -19z
m-200 -70 c-3 -8 -6 -5 -6 6 -1 11 2 17 5 13 3 -3 4 -12 1 -19z m-30 -30 c-3
-7 -5 -2 -5 12 0 14 2 19 5 13 2 -7 2 -19 0 -25z m77 17 c-7 -16 -24 -21 -24
-6 0 8 7 13 27 20 1 1 0 -6 -3 -14z m43 -17 c-3 -7 -5 -2 -5 12 0 14 2 19 5
13 2 -7 2 -19 0 -25z m20 0 c-3 -7 -5 -2 -5 12 0 14 2 19 5 13 2 -7 2 -19 0
-25z m30 0 c-3 -7 -5 -2 -5 12 0 14 2 19 5 13 2 -7 2 -19 0 -25z m20 0 c-3 -7
-5 -2 -5 12 0 14 2 19 5 13 2 -7 2 -19 0 -25z m43 26 c0 -8 -19 -13 -24 -6 -3
5 1 9 9 9 8 0 15 -2 15 -3z m56 -14 c8 0 14 -5 14 -10 0 -7 -6 -7 -20 0 -11 6
-20 16 -19 23 0 9 2 9 6 0 2 -7 11 -13 19 -13z m64 -1 c0 -5 -10 -8 -22 -8
-18 1 -19 2 -5 6 9 2 14 9 11 15 -4 7 -2 8 4 4 7 -4 12 -11 12 -17z m-373 -21
c-3 -8 -6 -5 -6 6 -1 11 2 17 5 13 3 -3 4 -12 1 -19z m273 12 c0 -5 -2 -10 -4
-10 -3 0 -8 5 -11 10 -3 6 -1 10 4 10 6 0 11 -4 11 -10z m-4213 -36 c-15 -8
-31 -13 -36 -10 -5 3 -21 -1 -37 -9 -16 -7 -41 -16 -57 -19 -15 -2 -37 -8 -50
-11 -42 -13 -3 13 58 38 33 14 80 25 105 26 l45 0 -28 -15z m164 -54 c-9 -28
-9 -29 19 -24 15 4 36 1 47 -5 17 -10 17 -10 0 -11 -9 0 -32 -8 -50 -18 -32
-17 -390 -253 -414 -273 -26 -20 -12 7 22 44 19 21 40 35 45 32 6 -4 9 -1 8 5
-2 7 6 17 16 23 11 7 29 20 40 30 23 21 66 41 79 38 5 -1 6 3 3 7 -5 8 10 22
68 65 18 13 18 14 -3 20 -11 3 -21 1 -21 -4 0 -5 -13 -9 -30 -9 -16 0 -30 -5
-30 -11 0 -6 -7 -9 -15 -5 -8 3 -15 1 -15 -3 0 -5 -21 -17 -47 -27 -27 -10
-53 -21 -58 -25 -14 -10 -65 -30 -65 -25 0 9 231 156 245 156 8 0 15 4 15 8 0
14 69 42 86 35 11 -4 15 -2 11 4 -4 7 5 15 20 21 33 11 40 -3 24 -48z m2914
-110 c4 -63 3 -112 -1 -108 -3 4 -8 22 -10 40 -8 64 -12 65 -67 10 -35 -34
-61 -52 -77 -52 -17 0 -21 -3 -12 -8 8 -6 1 -12 -23 -19 -39 -12 -45 -5 -15
17 11 8 20 18 20 23 0 8 41 60 159 199 8 10 16 16 17 15 1 -1 5 -54 9 -117z
m892 98 c-3 -8 -6 -5 -6 6 -1 11 2 17 5 13 3 -3 4 -12 1 -19z m270 -15 c-3
-10 -5 -4 -5 12 0 17 2 24 5 18 2 -7 2 -21 0 -30z m-190 5 c-3 -8 -6 -5 -6 6
-1 11 2 17 5 13 3 -3 4 -12 1 -19z m-4333 -120 c-9 -14 -42 -55 -66 -79 -9 -9
-14 -20 -10 -23 3 -3 0 -6 -6 -6 -7 0 -12 -7 -12 -15 0 -17 -97 -66 -116 -58
-7 2 -15 -1 -20 -8 -5 -8 -3 -10 7 -4 9 5 11 5 4 -2 -5 -5 -28 -20 -50 -33
-29 -18 -36 -19 -26 -7 7 9 10 17 7 17 -4 0 -1 7 8 15 8 8 19 15 25 15 6 0 11
6 11 14 0 14 160 143 160 129 0 -4 4 -2 8 5 5 7 24 21 43 32 41 23 42 23 33 8z
m4213 -190 c-3 -7 -5 -2 -5 12 0 14 2 19 5 13 2 -7 2 -19 0 -25z m-47 -20 c0
-5 -7 -3 -15 6 -8 8 -15 18 -15 22 0 3 7 1 15 -6 8 -7 15 -17 15 -22z m67 0
c-3 -7 -5 -2 -5 12 0 14 2 19 5 13 2 -7 2 -19 0 -25z m32 18 c7 -8 8 -17 3
-20 -6 -3 -12 3 -15 14 -6 24 -4 25 12 6z m122 -3 c13 -16 12 -17 -3 -4 -10 7
-18 15 -18 17 0 8 8 3 21 -13z m46 -15 c-3 -7 -5 -2 -5 12 0 14 2 19 5 13 2
-7 2 -19 0 -25z m30 0 c-3 -7 -5 -2 -5 12 0 14 2 19 5 13 2 -7 2 -19 0 -25z
m141 -4 c-4 -3 -12 5 -18 18 -12 22 -12 22 6 6 10 -10 15 -20 12 -24z m-3690
-91 c28 -18 104 -74 135 -99 9 -8 21 -14 26 -14 4 0 16 -9 27 -21 10 -11 40
-32 66 -47 26 -15 48 -30 48 -34 0 -8 122 -68 138 -68 5 0 24 -14 43 -31 19
-17 53 -42 77 -57 23 -15 40 -32 38 -39 -3 -7 1 -10 10 -6 8 3 22 -1 32 -10 9
-8 31 -22 47 -31 29 -15 27 -16 -60 -11 -131 8 -148 12 -275 62 -147 58 -156
63 -211 115 -25 24 -77 72 -117 107 -62 56 -72 69 -72 99 0 18 -4 41 -9 50 -4
9 -11 32 -15 51 l-6 33 25 -16 c14 -9 37 -24 53 -33z m-276 -23 c-6 -17 -18
-24 -43 -26 -19 -2 -52 -6 -74 -8 l-40 -5 35 15 c19 9 48 22 64 30 21 11 31
12 36 4 5 -8 9 -6 14 6 3 9 9 15 11 12 3 -3 2 -15 -3 -28z m-242 11 c23 -7 22
-8 -13 -15 -21 -4 -65 -16 -98 -26 -34 -11 -65 -18 -69 -15 -5 3 -10 2 -12 -2
-3 -8 -81 -39 -133 -53 -28 -8 -142 -46 -175 -58 -8 -3 -24 -6 -35 -8 -10 -1
-21 -6 -23 -12 -2 -6 -9 -9 -16 -6 -8 3 -21 -2 -30 -12 -30 -29 -27 -9 4 32
16 21 30 45 30 52 0 6 4 12 9 12 5 0 16 6 23 13 24 23 68 37 98 30 24 -4 29
-3 25 9 -7 18 56 33 215 53 121 15 165 16 200 6z m4133 -80 c2 -10 1 -25 -4
-32 -6 -10 -9 -4 -9 19 0 36 5 42 13 13z m-586 -23 c-3 -8 -6 -5 -6 6 -1 11 2
17 5 13 3 -3 4 -12 1 -19z m116 2 c-3 -11 -7 -20 -9 -20 -2 0 -4 9 -4 20 0 11
4 20 9 20 5 0 7 -9 4 -20z m24 -12 c-3 -7 -5 -2 -5 12 0 14 2 19 5 13 2 -7 2
-19 0 -25z m30 0 c-3 -7 -5 -2 -5 12 0 14 2 19 5 13 2 -7 2 -19 0 -25z m90 0
c-3 -7 -5 -2 -5 12 0 14 2 19 5 13 2 -7 2 -19 0 -25z m-3597 -38 c-13 -67 -13
-93 0 -85 15 9 12 -80 -5 -153 -19 -79 -49 -138 -78 -153 -12 -6 -43 -29 -69
-51 l-48 -39 0 119 c0 90 3 121 13 125 7 3 19 23 25 44 17 58 155 263 168 250
2 -2 0 -28 -6 -57z m3527 38 c-3 -8 -6 -5 -6 6 -1 11 2 17 5 13 3 -3 4 -12 1
-19z m90 0 c-3 -8 -6 -5 -6 6 -1 11 2 17 5 13 3 -3 4 -12 1 -19z m181 -3 c-3
-3 -9 2 -12 12 -6 14 -5 15 5 6 7 -7 10 -15 7 -18z m-3680 -215 c10 -30 23
-54 29 -53 10 2 33 -68 33 -103 0 -9 -8 -23 -17 -30 -84 -63 -148 128 -113
332 17 94 22 94 36 -1 8 -50 22 -115 32 -145z m3292 102 c0 -3 -9 3 -20 13
-11 10 -20 23 -20 28 0 6 9 0 20 -13 11 -13 20 -25 20 -28z m48 2 c-4 -3 -12
5 -18 18 -12 22 -12 22 6 6 10 -10 15 -20 12 -24z m125 15 c-4 -15 -9 -17 -17
-9 -8 8 -7 13 4 20 8 5 16 10 17 10 0 0 -1 -9 -4 -21z m62 -8 c-6 -5 -25 10
-25 20 0 5 6 4 14 -3 8 -7 12 -15 11 -17z m202 -3 c-3 -7 -5 -2 -5 12 0 14 2
19 5 13 2 -7 2 -19 0 -25z m50 -10 c-3 -8 -6 -5 -6 6 -1 11 2 17 5 13 3 -3 4
-12 1 -19z m-2719 -49 c-7 -5 1 -7 18 -7 16 1 41 -5 54 -12 14 -8 39 -16 55
-20 28 -6 25 -8 -27 -19 -32 -7 -66 -10 -75 -7 -10 3 -38 31 -61 61 l-44 56
46 -23 c29 -14 41 -25 34 -29z m2342 -149 c0 -11 -2 -20 -4 -20 -2 0 -6 9 -9
20 -3 11 -1 20 4 20 5 0 9 -9 9 -20z m52 -22 c-6 -6 -12 -5 -17 3 -5 8 -4 10
3 5 8 -5 12 1 13 16 1 18 2 19 6 4 3 -10 0 -23 -5 -28z m25 10 c-3 -7 -5 -2
-5 12 0 14 2 19 5 13 2 -7 2 -19 0 -25z m196 12 c-3 -11 -7 -20 -9 -20 -2 0
-4 9 -4 20 0 11 4 20 9 20 5 0 7 -9 4 -20z m24 -12 c-3 -7 -5 -2 -5 12 0 14 2
19 5 13 2 -7 2 -19 0 -25z m-110 0 c-3 -8 -6 -5 -6 6 -1 11 2 17 5 13 3 -3 4
-12 1 -19z m283 7 c0 -1 -9 -5 -19 -8 -13 -3 -18 -1 -14 9 4 10 33 10 33 -1z
m-4309 -95 c31 0 36 9 17 29 -11 10 -8 10 15 0 25 -11 28 -17 23 -43 -4 -17
-9 -66 -13 -109 -5 -74 -7 -79 -42 -108 l-36 -30 -19 23 c-53 66 -92 194 -80
269 l6 38 50 -35 c29 -19 63 -34 79 -34z m4286 -22 c-3 -7 -5 -2 -5 12 0 14 2
19 5 13 2 -7 2 -19 0 -25z m-3602 -24 c39 -9 108 -26 155 -39 47 -13 104 -28
128 -34 29 -8 42 -17 42 -29 0 -34 -40 -82 -90 -107 l-50 -25 -100 20 c-81 16
-255 71 -268 84 -1 2 13 35 33 75 41 81 40 80 150 55z m3262 -176 c-3 -7 -5
-2 -5 12 0 14 2 19 5 13 2 -7 2 -19 0 -25z m50 -15 c-3 -10 -5 -2 -5 17 0 19
2 27 5 18 2 -10 2 -26 0 -35z m170 5 c-3 -7 -5 -2 -5 12 0 14 2 19 5 13 2 -7
2 -19 0 -25z m-264 15 c-7 -2 -19 -2 -25 0 -7 3 -2 5 12 5 14 0 19 -2 13 -5z
m144 -25 c-3 -7 -5 -2 -5 12 0 14 2 19 5 13 2 -7 2 -19 0 -25z m-310 0 c-3 -8
-6 -5 -6 6 -1 11 2 17 5 13 3 -3 4 -12 1 -19z m90 0 c-3 -8 -6 -5 -6 6 -1 11
2 17 5 13 3 -3 4 -12 1 -19z m283 7 c0 -8 -4 -15 -10 -15 -5 0 -7 7 -4 15 4 8
8 15 10 15 2 0 4 -7 4 -15z m-307 -10 c-3 -9 -8 -14 -10 -11 -3 3 -2 9 2 15 9
16 15 13 8 -4z m-4726 -27 c-3 -8 -6 -5 -6 6 -1 11 2 17 5 13 3 -3 4 -12 1
-19z m5230 -50 c-3 -8 -6 -5 -6 6 -1 11 2 17 5 13 3 -3 4 -12 1 -19z m-380
-35 c-3 -10 -5 -2 -5 17 0 19 2 27 5 18 2 -10 2 -26 0 -35z m-190 5 c-3 -7 -5
-2 -5 12 0 14 2 19 5 13 2 -7 2 -19 0 -25z m95 13 c15 -15 14 -16 -10 -17 -15
-1 -21 1 -14 3 10 4 9 8 -4 17 -12 9 -13 13 -3 13 8 0 21 -7 31 -16z m161 -1
c-3 -11 -9 -17 -15 -14 -5 3 -4 12 3 20 16 19 18 18 12 -6z m267 -3 c0 -11 -1
-18 -3 -16 -1 2 -8 11 -15 20 -9 13 -9 16 3 16 8 0 15 -9 15 -20z m27 -9 c-3
-7 -5 -2 -5 12 0 14 2 19 5 13 2 -7 2 -19 0 -25z m-250 0 c-3 -8 -6 -5 -6 6
-1 11 2 17 5 13 3 -3 4 -12 1 -19z m50 -10 c-3 -8 -6 -5 -6 6 -1 11 2 17 5 13
3 -3 4 -12 1 -19z m-4520 -39 c-32 -16 -62 -27 -67 -24 -4 3 -73 1 -152 -5
-78 -5 -181 -13 -228 -16 -47 -3 -96 -8 -110 -10 -41 -6 -276 -14 -257 -8 9 3
17 10 17 15 0 6 -26 7 -62 5 -129 -11 -295 -15 -243 -6 132 22 219 30 320 30
132 1 371 15 550 34 72 8 166 14 210 14 l80 1 -58 -30z m167 -11 c3 -13 7 -34
10 -49 5 -23 0 -27 -67 -56 -40 -18 -86 -35 -103 -39 -49 -12 -100 -42 -129
-75 -15 -18 -37 -34 -48 -35 -12 -1 -86 -5 -164 -9 -83 -5 -147 -13 -152 -19
-5 -6 -11 -24 -14 -41 -4 -27 -4 -26 -6 8 -1 29 -6 40 -23 46 l-23 8 23 7 c12
4 32 8 45 10 12 1 31 7 42 13 11 6 76 34 145 63 69 29 164 70 213 91 48 21 91
39 96 39 4 0 19 8 32 19 54 41 117 51 123 19z m3863 -33 c0 -8 -4 -12 -9 -9
-5 3 -6 10 -3 15 9 13 12 11 12 -6z m100 -17 c-3 -7 -5 -2 -5 12 0 14 2 19 5
13 2 -7 2 -19 0 -25z m-4237 9 c0 -4 -135 -71 -162 -80 -9 -3 -18 -2 -20 3 -5
15 -206 15 -443 2 -234 -13 -301 -21 -273 -31 10 -3 79 -3 155 1 226 11 491
15 503 8 11 -7 -218 -102 -278 -115 -18 -4 -36 -13 -39 -21 -3 -9 -15 -14 -27
-13 -41 3 -48 -1 -43 -20 3 -13 0 -18 -8 -15 -7 3 -17 -5 -21 -19 -12 -33 -88
-117 -107 -117 -23 0 -38 25 -32 56 7 37 -8 62 -27 46 -9 -7 -26 -8 -53 -2
-22 5 -98 8 -170 5 -242 -8 -480 -18 -505 -20 -14 -2 -104 -6 -200 -9 -219 -7
-293 -14 -550 -47 -85 -11 -166 -22 -180 -25 l-25 -4 24 10 c13 6 56 18 95 26
39 9 76 20 82 25 5 5 26 6 45 3 31 -5 423 34 567 57 35 5 177 14 315 19 293
10 646 29 665 36 7 2 10 9 6 15 -4 7 -43 9 -123 4 -64 -3 -154 -8 -201 -10
-47 -3 -139 -10 -205 -15 -66 -6 -140 -9 -165 -8 -52 3 -183 -7 -360 -28 -179
-21 -401 -44 -430 -43 -23 0 -23 1 -5 9 11 5 31 9 45 9 14 1 61 17 105 36 44
19 81 31 83 25 4 -12 64 -13 128 -1 135 26 697 59 1101 66 111 2 207 6 214 11
7 4 23 7 37 8 14 1 27 6 29 13 7 19 -42 26 -136 19 -112 -8 -506 -33 -641 -41
-58 -3 -159 -11 -225 -16 -66 -6 -163 -12 -215 -15 -52 -2 -130 -9 -174 -15
-93 -12 -112 -5 -29 10 32 6 74 15 93 20 19 5 79 10 132 10 54 1 128 5 165 10
37 6 133 15 213 20 199 14 350 33 344 43 -3 4 -24 6 -47 3 -23 -2 -105 -7
-182 -10 -77 -4 -206 -12 -287 -19 -80 -6 -144 -8 -142 -4 3 5 11 8 17 8 7 0
33 11 59 25 31 17 48 21 50 13 3 -9 29 -9 109 1 57 7 120 17 139 22 19 5 154
11 300 14 146 3 319 10 385 16 341 30 525 43 525 36z m4220 -7 c0 -5 -2 -10
-4 -10 -3 0 -8 5 -11 10 -3 6 -1 10 4 10 6 0 11 -4 11 -10z m-4997 -17 c-7 -2
-21 -2 -30 0 -10 3 -4 5 12 5 17 0 24 -2 18 -5z m44 1 c-3 -3 -12 -4 -19 -1
-8 3 -5 6 6 6 11 1 17 -2 13 -5z m5390 -91 c-3 -10 -5 -2 -5 17 0 19 2 27 5
18 2 -10 2 -26 0 -35z m190 25 c-3 -8 -6 -5 -6 6 -1 11 2 17 5 13 3 -3 4 -12
1 -19z m-380 -35 c-3 -10 -5 -2 -5 17 0 19 2 27 5 18 2 -10 2 -26 0 -35z
m-190 5 c-3 -7 -5 -2 -5 12 0 14 2 19 5 13 2 -7 2 -19 0 -25z m83 22 c0 -5 -5
-10 -11 -10 -5 0 -7 5 -4 10 3 6 8 10 11 10 2 0 4 -4 4 -10z m173 -10 c-3 -11
-9 -17 -15 -14 -5 3 -4 12 3 20 16 19 18 18 12 -6z m174 -12 c-3 -7 -5 -2 -5
12 0 14 2 19 5 13 2 -7 2 -19 0 -25z m93 9 c0 -11 -1 -18 -3 -16 -1 2 -8 11
-15 20 -9 13 -9 16 3 16 8 0 15 -9 15 -20z m27 -9 c-3 -7 -5 -2 -5 12 0 14 2
19 5 13 2 -7 2 -19 0 -25z m-250 0 c-3 -8 -6 -5 -6 6 -1 11 2 17 5 13 3 -3 4
-12 1 -19z m110 0 c-3 -8 -6 -5 -6 6 -1 11 2 17 5 13 3 -3 4 -12 1 -19z m-187
2 c0 -5 -5 -10 -11 -10 -5 0 -7 5 -4 10 3 6 8 10 11 10 2 0 4 -4 4 -10z m127
-12 c-3 -8 -6 -5 -6 6 -1 11 2 17 5 13 3 -3 4 -12 1 -19z m-4977 -149 c0 -5
-4 -9 -10 -9 -5 0 -10 7 -10 16 0 8 5 12 10 9 6 -3 10 -10 10 -16z m-132 -16
c-4 -23 -53 -29 -85 -12 -31 17 -12 29 45 29 36 0 43 -3 40 -17z m4295 -38
c-3 -9 -8 -14 -10 -11 -3 3 -2 9 2 15 9 16 15 13 8 -4z m-73 -326 c0 -14 -17
-10 -23 5 -4 10 -1 13 9 9 7 -3 14 -9 14 -14z m210 -1 c0 -10 -2 -18 -5 -18
-2 0 -9 8 -14 18 -8 14 -6 19 5 19 7 0 14 -9 14 -19z m-173 -10 c-3 -8 -6 -5
-6 6 -1 11 2 17 5 13 3 -3 4 -12 1 -19z m53 8 c0 -2 -7 -7 -16 -10 -8 -3 -12
-2 -9 4 6 10 25 14 25 6z m-253 -88 c-3 -8 -6 -5 -6 6 -1 11 2 17 5 13 3 -3 4
-12 1 -19z m424 -14 c-9 -28 -9 -29 -10 -3 -1 14 2 29 6 32 11 12 13 2 4 -29z
m58 4 c0 -28 -2 -30 -9 -13 -12 28 -12 45 0 45 6 0 10 -15 9 -32z m-262 -15
c-3 -10 -5 -4 -5 12 0 17 2 24 5 18 2 -7 2 -21 0 -30z m40 5 c-3 -7 -5 -2 -5
12 0 14 2 19 5 13 2 -7 2 -19 0 -25z m-204 2 c-3 -12 -8 -19 -11 -16 -5 6 5
36 12 36 2 0 2 -9 -1 -20z m-36 -12 c-3 -8 -6 -5 -6 6 -1 11 2 17 5 13 3 -3 4
-12 1 -19z m-4400 -30 c-3 -7 -5 -2 -5 12 0 14 2 19 5 13 2 -7 2 -19 0 -25z
m2059 -373 c68 -20 95 -52 71 -89 -13 -19 -27 -24 -79 -28 -48 -4 -86 -16
-159 -52 -53 -25 -105 -56 -118 -67 -44 -41 -80 -49 -210 -42 -66 3 -121 10
-121 14 0 19 69 85 130 124 36 24 79 55 95 69 43 39 79 56 149 70 90 19 180
19 242 1z m2671 -32 c-3 -10 -5 -2 -5 17 0 19 2 27 5 18 2 -10 2 -26 0 -35z
m120 0 c-3 -10 -5 -2 -5 17 0 19 2 27 5 18 2 -10 2 -26 0 -35z m452 15 c0 -27
-2 -29 -8 -13 -5 11 -6 26 -4 33 8 21 13 13 12 -20z m131 12 c0 -5 -5 -10 -11
-10 -5 0 -7 5 -4 10 3 6 8 10 11 10 2 0 4 -4 4 -10z m-633 -47 c-3 -10 -5 -2
-5 17 0 19 2 27 5 18 2 -10 2 -26 0 -35z m360 15 c-3 -7 -5 -2 -5 12 0 14 2
19 5 13 2 -7 2 -19 0 -25z m110 0 c-3 -7 -5 -2 -5 12 0 14 2 19 5 13 2 -7 2
-19 0 -25z m256 17 c-3 -9 -8 -14 -10 -11 -3 3 -2 9 2 15 9 16 15 13 8 -4z
m147 -12 c0 -12 -2 -12 -15 1 -8 8 -15 17 -15 20 0 3 7 3 15 0 8 -4 15 -13 15
-21z m-843 -5 c-3 -8 -6 -5 -6 6 -1 11 2 17 5 13 3 -3 4 -12 1 -19z m110 0
c-3 -8 -6 -5 -6 6 -1 11 2 17 5 13 3 -3 4 -12 1 -19z m170 0 c-3 -8 -6 -5 -6
6 -1 11 2 17 5 13 3 -3 4 -12 1 -19z m493 2 c0 -5 -2 -10 -4 -10 -3 0 -8 5
-11 10 -3 6 -1 10 4 10 6 0 11 -4 11 -10z m-123 -217 c-3 -10 -5 -2 -5 17 0
19 2 27 5 18 2 -10 2 -26 0 -35z m-330 -5 c-3 -7 -5 -2 -5 12 0 14 2 19 5 13
2 -7 2 -19 0 -25z m360 0 c-3 -7 -5 -2 -5 12 0 14 2 19 5 13 2 -7 2 -19 0 -25z
m113 12 c0 -11 -4 -20 -9 -20 -5 0 -7 9 -4 20 3 11 7 20 9 20 2 0 4 -9 4 -20z
m47 -12 c-3 -7 -5 -2 -5 12 0 14 2 19 5 13 2 -7 2 -19 0 -25z m-310 0 c-3 -8
-6 -5 -6 6 -1 11 2 17 5 13 3 -3 4 -12 1 -19z m38 13 c3 -5 2 -12 -3 -15 -5
-3 -9 1 -9 9 0 17 3 19 12 6z m65 -11 c0 -5 -2 -10 -4 -10 -3 0 -8 5 -11 10
-3 6 -1 10 4 10 6 0 11 -4 11 -10z m-4006 -65 c9 -14 15 -25 13 -25 -2 0 -14
11 -27 25 -13 14 -19 25 -13 25 6 0 18 -11 27 -25z m-577 -47 c-3 -8 -6 -5 -6
6 -1 11 2 17 5 13 3 -3 4 -12 1 -19z m523 -3 c0 -8 -7 -15 -15 -15 -9 0 -12 6
-9 15 4 8 10 15 15 15 5 0 9 -7 9 -15z m-893 -27 c-3 -8 -6 -5 -6 6 -1 11 2
17 5 13 3 -3 4 -12 1 -19z m170 0 c-3 -8 -6 -5 -6 6 -1 11 2 17 5 13 3 -3 4
-12 1 -19z m4690 -75 c-3 -10 -5 -2 -5 17 0 19 2 27 5 18 2 -10 2 -26 0 -35z
m206 28 c2 -10 1 -25 -4 -32 -6 -10 -9 -4 -9 19 0 36 5 42 13 13z m-396 -28
c-3 -10 -5 -4 -5 12 0 17 2 24 5 18 2 -7 2 -21 0 -30z m224 14 c-10 -9 -11 -8
-5 6 3 10 9 15 12 12 3 -3 0 -11 -7 -18z m-124 -124 c-3 -10 -5 -2 -5 17 0 19
2 27 5 18 2 -10 2 -26 0 -35z m-160 -5 c-3 -7 -5 -2 -5 12 0 14 2 19 5 13 2
-7 2 -19 0 -25z m30 -5 c-3 -10 -5 -4 -5 12 0 17 2 24 5 18 2 -7 2 -21 0 -30z
m100 15 c-3 -8 -6 -5 -6 6 -1 11 2 17 5 13 3 -3 4 -12 1 -19z m-42 -8 c-3 -5
-12 -7 -20 -3 -21 7 -19 13 6 13 11 0 18 -4 14 -10z"/>
<path d="M9320 9535 c0 -8 5 -15 10 -15 6 0 10 7 10 15 0 8 -4 15 -10 15 -5 0
-10 -7 -10 -15z"/>
<path d="M9358 9543 c7 -3 16 -2 19 1 4 3 -2 6 -13 5 -11 0 -14 -3 -6 -6z"/>
<path d="M9050 9530 c8 -5 20 -10 25 -10 6 0 3 5 -5 10 -8 5 -19 10 -25 10 -5
0 -3 -5 5 -10z"/>
<path d="M9129 9468 c-12 -42 1 -72 23 -50 11 11 2 52 -13 52 -5 0 -9 -1 -10
-2z"/>
<path d="M9170 9204 c0 -8 5 -12 10 -9 6 4 8 11 5 16 -9 14 -15 11 -15 -7z"/>
<path d="M9358 8883 c7 -3 16 -2 19 1 4 3 -2 6 -13 5 -11 0 -14 -3 -6 -6z"/>
<path d="M8700 7345 c0 -5 5 -17 10 -25 5 -8 10 -10 10 -5 0 6 -5 17 -10 25
-5 8 -10 11 -10 5z"/>
<path d="M8330 7320 c-9 -6 -10 -10 -3 -10 6 0 15 5 18 10 8 12 4 12 -15 0z"/>
<path d="M8763 7208 c-23 -30 -26 -42 -5 -24 15 13 22 15 22 6 0 -7 3 -11 6
-7 3 3 2 13 -3 22 -8 13 -11 14 -20 3z"/>
<path d="M8797 7167 c-2 -6 6 -20 19 -30 29 -22 31 -14 5 19 -13 16 -20 20
-24 11z"/>
<path d="M7826 7074 c-5 -14 -4 -15 9 -4 17 14 19 20 6 20 -5 0 -12 -7 -15
-16z"/>
<path d="M8906 6976 c3 -8 13 -17 22 -21 13 -5 13 -2 -3 15 -21 24 -26 25 -19
6z"/>
<path d="M8986 6957 c3 -10 9 -15 12 -12 3 3 0 11 -7 18 -10 9 -11 8 -5 -6z"/>
<path d="M8965 6940 c3 -5 8 -10 11 -10 2 0 4 5 4 10 0 6 -5 10 -11 10 -5 0
-7 -4 -4 -10z"/>
<path d="M8530 6770 c-8 -5 -10 -10 -5 -10 6 0 17 5 25 10 8 5 11 10 5 10 -5
0 -17 -5 -25 -10z"/>
<path d="M8100 6566 c0 -2 7 -7 16 -10 8 -3 12 -2 9 4 -6 10 -25 14 -25 6z"/>
<path d="M7695 6285 c-16 -13 -26 -24 -22 -25 4 0 20 11 35 25 34 32 26 32
-13 0z"/>
<path d="M7441 6050 c-13 -11 -19 -20 -14 -20 6 0 18 9 28 20 23 25 17 25 -14
0z"/>
<path d="M6268 6928 c5 -7 12 -22 15 -33 4 -16 5 -14 6 6 1 17 -5 29 -15 33
-13 5 -14 3 -6 -6z"/>
<path d="M6186 6904 c-23 -23 -20 -30 4 -9 11 10 20 20 20 22 0 7 -9 2 -24
-13z"/>
<path d="M6261 6880 c0 -8 4 -24 9 -35 5 -13 9 -14 9 -5 0 8 -4 24 -9 35 -5
13 -9 14 -9 5z"/>
<path d="M6131 6839 c-7 -16 -10 -33 -7 -36 4 -4 12 7 18 25 7 17 19 33 28 36
10 2 9 4 -5 5 -13 1 -25 -9 -34 -30z"/>
<path d="M6291 6854 c0 -11 3 -14 6 -6 3 7 2 16 -1 19 -3 4 -6 -2 -5 -13z"/>
<path d="M6253 6815 c3 -24 48 -28 54 -5 4 12 2 12 -5 2 -11 -16 -35 -12 -44
8 -6 11 -7 10 -5 -5z"/>
<path d="M6262 6680 c0 -19 2 -27 5 -17 2 9 2 25 0 35 -3 9 -5 1 -5 -18z"/>
<path d="M6105 6652 c3 -44 10 -60 21 -49 4 4 2 12 -4 19 -6 7 -12 27 -15 43
-2 17 -3 11 -2 -13z"/>
<path d="M6290 6690 c0 -5 5 -10 10 -10 6 0 10 5 10 10 0 6 -4 10 -10 10 -5 0
-10 -4 -10 -10z"/>
<path d="M6260 6579 c0 -5 5 -7 10 -4 6 3 10 8 10 11 0 2 -4 4 -10 4 -5 0 -10
-5 -10 -11z"/>
<path d="M6125 6555 c7 -33 12 -41 20 -33 3 3 -2 18 -11 34 l-16 29 7 -30z"/>
<path d="M6157 6483 c-4 -3 -7 -11 -7 -17 0 -6 5 -5 12 2 6 6 9 14 7 17 -3 3
-9 2 -12 -2z"/>
<path d="M6236 6257 c3 -10 9 -15 12 -12 3 3 0 11 -7 18 -10 9 -11 8 -5 -6z"/>
<path d="M8528 6663 c7 -3 16 -2 19 1 4 3 -2 6 -13 5 -11 0 -14 -3 -6 -6z"/>
<path d="M8755 6660 c3 -5 8 -10 11 -10 2 0 4 5 4 10 0 6 -5 10 -11 10 -5 0
-7 -4 -4 -10z"/>
<path d="M8104 6444 c-18 -14 -18 -15 4 -4 12 6 22 13 22 15 0 8 -5 6 -26 -11z"/>
<path d="M8089 6410 c-14 -4 -35 -13 -47 -19 -29 -15 -91 -82 -92 -98 0 -26
17 -19 66 25 28 26 64 57 80 68 33 25 31 34 -7 24z"/>
<path d="M9085 6390 c3 -5 8 -10 11 -10 2 0 4 5 4 10 0 6 -5 10 -11 10 -5 0
-7 -4 -4 -10z"/>
<path d="M9050 6381 c0 -5 7 -12 16 -15 14 -5 15 -4 4 9 -14 17 -20 19 -20 6z"/>
<path d="M9140 6330 c0 -5 5 -10 11 -10 5 0 7 5 4 10 -3 6 -8 10 -11 10 -2 0
-4 -4 -4 -10z"/>
<path d="M9265 6210 c3 -5 8 -10 11 -10 2 0 4 5 4 10 0 6 -5 10 -11 10 -5 0
-7 -4 -4 -10z"/>
<path d="M9276 6182 c-3 -5 1 -9 9 -9 8 0 15 4 15 9 0 4 -4 8 -9 8 -6 0 -12
-4 -15 -8z"/>
<path d="M9325 6059 c-4 -6 -5 -12 -2 -15 2 -3 7 2 10 11 7 17 1 20 -8 4z"/>
<path d="M9352 6048 c-16 -16 -15 -26 2 -44 22 -22 31 -17 11 6 -10 11 -15 23
-11 27 4 4 11 1 16 -7 5 -8 11 -12 14 -10 2 3 -1 13 -8 22 -10 13 -15 15 -24
6z"/>
<path d="M9416 5947 c3 -10 9 -15 12 -12 3 3 0 11 -7 18 -10 9 -11 8 -5 -6z"/>
<path d="M9431 5896 c7 -15 15 -23 17 -16 3 7 -3 19 -13 28 -15 16 -16 15 -4
-12z"/>
<path d="M8217 5754 c-14 -5 -16 -9 -6 -20 6 -8 20 -14 31 -14 10 0 16 -4 13
-10 -3 -5 0 -7 8 -4 8 3 84 -31 170 -76 87 -44 159 -80 162 -80 14 0 1 33 -34
83 -22 30 -36 58 -33 62 4 4 2 5 -4 3 -6 -1 -22 10 -36 27 -26 30 -27 30 -140
32 -62 1 -121 -1 -131 -3z"/>
<path d="M9506 5717 c3 -10 9 -15 12 -12 3 3 0 11 -7 18 -10 9 -11 8 -5 -6z"/>
<path d="M8195 5710 c3 -5 11 -10 16 -10 6 0 7 5 4 10 -3 6 -11 10 -16 10 -6
0 -7 -4 -4 -10z"/>
<path d="M8333 5655 c0 -8 4 -12 9 -9 5 3 6 10 3 15 -9 13 -12 11 -12 -6z"/>
<path d="M8571 5653 c8 -10 26 -31 41 -47 30 -32 35 -51 16 -60 -7 -3 -3 -3
10 0 12 3 22 1 22 -4 0 -19 74 -102 90 -102 26 0 24 63 -1 86 -15 14 -17 20
-7 27 10 6 9 7 -3 4 -10 -3 -29 7 -48 27 -25 26 -29 35 -19 46 11 12 10 12 -5
1 -15 -12 -20 -11 -35 3 -10 9 -26 16 -35 16 -9 0 -17 5 -17 10 0 6 -5 10 -11
10 -8 0 -7 -6 2 -17z"/>
<path d="M9556 5575 c-9 -26 -7 -32 5 -12 6 10 9 21 6 23 -2 3 -7 -2 -11 -11z"/>
<path d="M9620 5413 c0 -21 3 -24 9 -14 5 8 7 20 4 28 -8 21 -13 15 -13 -14z"/>
<path d="M8489 5380 c-11 -7 27 -50 164 -184 97 -96 177 -182 177 -191 0 -8 7
-15 15 -15 8 0 15 3 15 8 -1 22 -35 102 -61 139 -16 24 -29 46 -29 48 0 9 -89
90 -117 107 -31 19 -49 30 -109 70 -27 18 -45 24 -55 18z"/>
<path d="M9636 5285 c-3 -8 -1 -15 4 -15 6 0 10 7 10 15 0 8 -2 15 -4 15 -2 0
-6 -7 -10 -15z"/>
<path d="M9496 5135 c-3 -9 -6 -39 -6 -67 0 -42 3 -49 17 -46 15 3 18 14 18
62 0 58 -16 85 -29 51z"/>
<path d="M9680 5106 c0 -4 9 -19 20 -33 11 -14 20 -21 20 -16 0 6 -9 20 -20
33 -11 13 -20 20 -20 16z"/>
<path d="M9611 5051 c-7 -28 -17 -51 -22 -51 -4 0 -6 -7 -3 -15 4 -8 1 -15 -5
-15 -6 0 -8 -6 -5 -14 3 -7 -1 -20 -9 -27 -7 -8 -12 -20 -9 -27 7 -22 33 -12
46 18 7 17 15 28 18 24 4 -3 4 3 1 15 -4 16 -1 21 13 22 11 0 14 3 6 6 -8 3
-11 15 -7 36 4 18 2 42 -2 55 -8 21 -10 18 -22 -27z"/>
<path d="M5974 6585 c-17 -14 -17 -14 -1 -9 15 6 18 2 15 -16 -1 -13 2 -25 7
-27 6 -1 10 13 10 32 0 39 -3 41 -31 20z"/>
<path d="M6020 6521 c0 -6 5 -13 10 -16 6 -3 10 1 10 9 0 9 -4 16 -10 16 -5 0
-10 -4 -10 -9z"/>
<path d="M5880 6496 c0 -9 7 -12 20 -9 31 8 34 23 6 23 -16 0 -26 -6 -26 -14z"/>
<path d="M5855 6450 c-3 -5 -1 -10 4 -10 6 0 11 5 11 10 0 6 -2 10 -4 10 -3 0
-8 -4 -11 -10z"/>
<path d="M6031 6425 c0 -16 4 -39 9 -50 7 -17 9 -16 9 10 0 17 -4 39 -9 50 -7
17 -9 16 -9 -10z"/>
<path d="M6000 6350 c0 -5 7 -10 15 -10 8 0 15 5 15 10 0 6 -7 10 -15 10 -8 0
-15 -4 -15 -10z"/>
<path d="M5692 6300 c-19 -10 -29 -21 -23 -25 11 -6 60 24 61 38 0 4 -1 6 -2
6 -2 -1 -18 -9 -36 -19z"/>
<path d="M5785 6281 c-3 -5 -1 -12 4 -15 5 -3 11 1 15 9 6 16 -9 21 -19 6z"/>
<path d="M5750 6270 c-13 -8 -12 -10 3 -10 9 0 17 5 17 10 0 12 -1 12 -20 0z"/>
<path d="M5690 6260 c0 -5 7 -10 15 -10 8 0 15 5 15 10 0 6 -7 10 -15 10 -8 0
-15 -4 -15 -10z"/>
<path d="M5620 6242 c0 -4 10 -9 22 -9 18 -2 20 0 8 7 -18 12 -30 13 -30 2z"/>
<path d="M5740 6240 c0 -5 -9 -10 -20 -10 -11 0 -20 -4 -20 -10 0 -15 30 -12
47 6 10 10 25 13 40 9 16 -4 22 -2 18 5 -8 13 -65 13 -65 0z"/>
<path d="M5956 6187 c3 -10 9 -15 12 -12 3 3 0 11 -7 18 -10 9 -11 8 -5 -6z"/>
<path d="M5570 6175 c-10 -12 -11 -18 -1 -28 10 -9 11 -8 6 6 -4 10 -2 17 4
17 6 0 11 -5 11 -12 0 -6 3 -9 6 -5 3 3 2 13 -3 22 -9 15 -11 15 -23 0z"/>
<path d="M5745 6160 c3 -5 8 -10 11 -10 2 0 4 5 4 10 0 6 -5 10 -11 10 -5 0
-7 -4 -4 -10z"/>
<path d="M5772 6130 c0 -14 2 -19 5 -12 2 6 2 18 0 25 -3 6 -5 1 -5 -13z"/>
<path d="M6267 6063 c-11 -10 -8 -71 4 -78 18 -12 58 5 76 31 16 25 16 27 -2
40 -20 15 -67 19 -78 7z m33 -43 c0 -5 -5 -10 -11 -10 -5 0 -7 5 -4 10 3 6 8
10 11 10 2 0 4 -4 4 -10z"/>
<path d="M6283 5897 c-26 -11 -29 -22 -10 -30 7 -3 19 4 26 15 16 25 12 28
-16 15z"/>
<path d="M6232 5755 c0 -16 2 -22 5 -12 2 9 2 23 0 30 -3 6 -5 -1 -5 -18z"/>
<path d="M5445 5919 c-8 -12 24 -19 47 -10 21 7 20 8 -10 13 -18 3 -35 1 -37
-3z"/>
<path d="M5478 5891 c-17 -4 -25 -10 -20 -17 5 -8 16 -5 37 7 31 20 29 21 -17
10z"/>
<path d="M5600 5842 c0 -5 7 -9 15 -9 8 0 12 4 9 9 -3 4 -9 8 -15 8 -5 0 -9
-4 -9 -8z"/>
<path d="M5500 5805 c-7 -9 -8 -15 -2 -15 5 0 12 7 16 15 3 8 4 15 2 15 -2 0
-9 -7 -16 -15z"/>
<path d="M5581 5794 c0 -11 3 -14 6 -6 3 7 2 16 -1 19 -3 4 -6 -2 -5 -13z"/>
<path d="M5260 5779 c0 -5 -5 -7 -12 -3 -7 4 -8 3 -4 -4 4 -6 13 -9 21 -6 8 4
12 10 9 15 -7 12 -14 11 -14 -2z"/>
<path d="M5253 5643 c-26 -18 -30 -33 -8 -33 8 0 15 4 15 9 0 5 8 8 18 7 9 0
17 5 17 13 0 21 -17 22 -42 4z m37 -3 c0 -5 -4 -10 -10 -10 -5 0 -10 5 -10 10
0 6 5 10 10 10 6 0 10 -4 10 -10z"/>
<path d="M5147 5489 c7 -7 15 -10 18 -7 3 3 -2 9 -12 12 -14 6 -15 5 -6 -5z"/>
<path d="M4950 5336 c0 -2 7 -7 16 -10 8 -3 12 -2 9 4 -6 10 -25 14 -25 6z"/>
<path d="M4980 5230 c20 -13 33 -13 25 0 -3 6 -14 10 -23 10 -15 0 -15 -2 -2
-10z"/>
<path d="M8230 5396 c0 -2 8 -10 18 -17 15 -13 16 -12 3 4 -13 16 -21 21 -21
13z"/>
<path d="M8270 5362 c0 -5 7 -15 15 -22 8 -7 15 -8 15 -2 0 5 -7 15 -15 22 -8
7 -15 8 -15 2z"/>
<path d="M8340 5150 c0 -5 5 -10 11 -10 5 0 7 5 4 10 -3 6 -8 10 -11 10 -2 0
-4 -4 -4 -10z"/>
<path d="M8501 5064 c0 -11 3 -14 6 -6 3 7 2 16 -1 19 -3 4 -6 -2 -5 -13z"/>
<path d="M5414 5076 c11 -9 24 -16 30 -16 12 0 7 5 -24 19 -24 11 -24 11 -6
-3z"/>
<path d="M4894 4915 c-10 -8 -14 -14 -9 -14 6 0 19 6 29 14 11 8 15 15 10 15
-6 0 -19 -7 -30 -15z"/>
<path d="M4800 4870 c20 -13 40 -13 40 0 0 6 -12 10 -27 10 -22 0 -25 -2 -13
-10z"/>
<path d="M4788 4828 c5 -5 16 -8 23 -6 8 3 3 7 -10 11 -17 4 -21 3 -13 -5z"/>
<path d="M4640 4740 c-8 -16 -8 -18 4 -14 8 3 17 1 21 -5 8 -14 25 -14 25 -1
0 6 -7 10 -16 10 -10 0 -14 6 -10 15 8 22 -12 18 -24 -5z"/>
<path d="M4508 4533 c7 -3 16 -2 19 1 4 3 -2 6 -13 5 -11 0 -14 -3 -6 -6z"/>
<path d="M6195 4400 c3 -5 8 -10 11 -10 2 0 4 5 4 10 0 6 -5 10 -11 10 -5 0
-7 -4 -4 -10z"/>
<path d="M6010 4326 c0 -2 7 -9 15 -16 9 -7 15 -8 15 -2 0 5 -7 12 -15 16 -8
3 -15 4 -15 2z"/>
<path d="M6100 4250 c-12 -7 -10 -9 7 -7 12 0 19 5 17 9 -6 10 -6 10 -24 -2z"/>
<path d="M4470 4229 c0 -5 5 -7 10 -4 6 3 10 8 10 11 0 2 -4 4 -10 4 -5 0 -10
-5 -10 -11z"/>
<path d="M4620 3771 c0 -5 5 -13 10 -16 6 -3 10 -2 10 4 0 5 -4 13 -10 16 -5
3 -10 2 -10 -4z"/>
<path d="M4670 3653 c0 -13 5 -23 10 -23 13 0 13 11 0 30 -8 12 -10 11 -10 -7z"/>
<path d="M5325 3565 c-88 -17 -148 -38 -153 -55 -4 -10 16 -12 96 -7 55 3 109
10 120 16 12 6 29 11 40 11 31 0 122 30 122 40 0 14 -142 11 -225 -5z"/>
<path d="M5458 3433 c7 -3 16 -2 19 1 4 3 -2 6 -13 5 -11 0 -14 -3 -6 -6z"/>
<path d="M8020 4900 c-8 -5 -10 -10 -5 -10 6 0 17 5 25 10 8 5 11 10 5 10 -5
0 -17 -5 -25 -10z"/>
<path d="M7495 4890 c-3 -6 1 -7 9 -4 18 7 21 14 7 14 -6 0 -13 -4 -16 -10z"/>
<path d="M8096 4833 c-6 -14 -5 -15 5 -6 7 7 10 15 7 18 -3 3 -9 -2 -12 -12z"/>
<path d="M8053 4637 c7 -68 33 -135 48 -120 15 15 -21 173 -40 173 -11 0 -13
-12 -8 -53z"/>
<path d="M8097 4673 c-4 -3 -7 -11 -7 -17 0 -6 5 -5 12 2 6 6 9 14 7 17 -3 3
-9 2 -12 -2z"/>
<path d="M7170 4650 c-13 -11 -21 -22 -18 -25 2 -3 15 6 28 20 28 30 22 33
-10 5z"/>
<path d="M8145 4628 c-6 -20 -12 -192 -8 -205 5 -15 33 -17 33 -3 1 6 1 53 1
105 0 52 0 100 -1 105 0 14 -20 12 -25 -2z"/>
<path d="M8325 4443 c3 -21 18 -58 33 -83 15 -25 33 -57 40 -72 8 -14 29 -44
48 -66 23 -27 32 -46 28 -59 -4 -12 -3 -14 3 -6 6 8 24 -6 62 -47 29 -33 57
-60 61 -60 15 0 18 39 4 66 -8 14 -14 32 -14 40 0 35 -107 193 -174 257 -83
78 -101 84 -91 30z"/>
<path d="M6875 4400 c3 -5 11 -10 16 -10 6 0 7 5 4 10 -3 6 -11 10 -16 10 -6
0 -7 -4 -4 -10z"/>
<path d="M8360 4286 c0 -2 8 -10 18 -17 15 -13 16 -12 3 4 -13 16 -21 21 -21
13z"/>
<path d="M6570 4049 c0 -5 5 -7 10 -4 6 3 10 8 10 11 0 2 -4 4 -10 4 -5 0 -10
-5 -10 -11z"/>
<path d="M6556 4013 c-6 -14 -5 -15 5 -6 7 7 10 15 7 18 -3 3 -9 -2 -12 -12z"/>
<path d="M8586 4012 c-2 -4 2 -15 9 -25 11 -16 13 -16 19 -1 10 25 -14 48 -28
26z"/>
<path d="M6212 3420 c0 -14 2 -19 5 -12 2 6 2 18 0 25 -3 6 -5 1 -5 -13z"/>
<path d="M6565 2800 c3 -5 11 -10 16 -10 6 0 7 5 4 10 -3 6 -11 10 -16 10 -6
0 -7 -4 -4 -10z"/>
<path d="M6795 2700 c-3 -5 -1 -10 4 -10 6 0 11 5 11 10 0 6 -2 10 -4 10 -3 0
-8 -4 -11 -10z"/>
<path d="M6349 3983 c-13 -16 -12 -17 4 -4 16 13 21 21 13 21 -2 0 -10 -8 -17
-17z"/>
<path d="M6230 3893 c0 -6 8 -17 18 -24 16 -13 16 -13 2 6 -8 11 -16 22 -17
24 -2 2 -3 0 -3 -6z"/>
<path d="M6210 3829 c0 -6 -7 -9 -15 -5 -8 3 -15 1 -15 -5 0 -6 -5 -7 -11 -3
-7 4 -10 2 -8 -5 3 -7 8 -12 13 -11 5 1 13 -4 18 -12 8 -10 9 -10 5 2 -2 8 6
22 17 32 12 10 16 17 9 18 -7 0 -13 -5 -13 -11z"/>
<path d="M6017 3683 c-4 -3 -7 -11 -7 -17 0 -6 5 -5 12 2 6 6 9 14 7 17 -3 3
-9 2 -12 -2z"/>
<path d="M6142 3430 c0 -14 2 -19 5 -12 2 6 2 18 0 25 -3 6 -5 1 -5 -13z"/>
<path d="M6047 3249 c7 -7 15 -10 18 -7 3 3 -2 9 -12 12 -14 6 -15 5 -6 -5z"/>
<path d="M5895 3840 c3 -5 8 -10 11 -10 2 0 4 5 4 10 0 6 -5 10 -11 10 -5 0
-7 -4 -4 -10z"/>
<path d="M6045 3839 c-4 -6 -5 -12 -2 -15 2 -3 7 2 10 11 7 17 1 20 -8 4z"/>
<path d="M9301 3684 c0 -11 3 -14 6 -6 3 7 2 16 -1 19 -3 4 -6 -2 -5 -13z"/>
<path d="M2068 3724 c-71 -41 -95 -64 -67 -64 5 0 7 5 4 10 -3 6 0 10 9 10 20
0 73 30 109 63 18 15 29 27 27 27 -3 0 -40 -21 -82 -46z"/>
<path d="M2700 2651 c-69 -20 -142 -45 -162 -54 -21 -9 -54 -24 -74 -33 -39
-17 -74 -48 -74 -64 0 -16 74 -3 143 25 34 13 136 48 227 78 118 38 166 58
168 70 3 12 -4 17 -22 17 -18 0 -26 -5 -26 -17 -1 -17 -1 -17 -14 0 -17 22
-19 22 -166 -22z"/>
<path d="M9461 3334 c0 -11 3 -14 6 -6 3 7 2 16 -1 19 -3 4 -6 -2 -5 -13z"/>
<path d="M9441 3264 c0 -11 3 -14 6 -6 3 7 2 16 -1 19 -3 4 -6 -2 -5 -13z"/>
<path d="M8710 3179 c0 -5 5 -7 10 -4 6 3 10 8 10 11 0 2 -4 4 -10 4 -5 0 -10
-5 -10 -11z"/>
<path d="M8676 3164 c-5 -14 -4 -15 9 -4 17 14 19 20 6 20 -5 0 -12 -7 -15
-16z"/>
<path d="M5227 3033 c-4 -3 -7 -11 -7 -17 0 -6 5 -5 12 2 6 6 9 14 7 17 -3 3
-9 2 -12 -2z"/>
<path d="M5189 3003 c-1 -5 -1 -11 0 -15 0 -5 -3 -8 -9 -8 -5 0 -10 -4 -10
-10 0 -5 6 -7 14 -4 8 3 14 14 13 25 -1 19 -6 26 -8 12z"/>
<path d="M5244 2706 c-9 -20 -9 -23 2 -19 8 3 14 14 14 24 0 25 -3 24 -16 -5z"/>
<path d="M4405 1569 c-37 -23 -45 -33 -34 -39 9 -6 21 -3 34 9 11 11 29 21 40
23 19 3 35 38 18 38 -5 0 -31 -14 -58 -31z"/>
<path d="M6166 582 c-3 -2 6 -14 20 -24 33 -26 40 -19 9 8 -13 12 -26 19 -29
16z"/>
<path d="M9652 9980 c0 -14 2 -19 5 -12 2 6 2 18 0 25 -3 6 -5 1 -5 -13z"/>
<path d="M9690 9979 c0 -11 5 -17 10 -14 6 3 10 13 10 21 0 8 -4 14 -10 14 -5
0 -10 -9 -10 -21z"/>
<path d="M9470 9975 c0 -8 5 -15 10 -15 6 0 10 7 10 15 0 8 -4 15 -10 15 -5 0
-10 -7 -10 -15z"/>
</g>
</svg>
